<svg width="33" height="35" viewBox="0 0 33 35" fill="none" xmlns="http://www.w3.org/2000/svg">
<path d="M31.2765 26.5938L18.2765 34.1055C17.7343 34.4229 16.9937 34.5684 16.2266 34.5419C15.3935 34.5155 14.5339 34.3039 13.8462 33.9204L1.48092 26.7789C1.13708 26.5806 0.872579 26.3557 0.700656 26.1309C0.515508 25.8929 0.422934 25.6548 0.396484 25.4168C0.396484 25.3639 0.396484 25.3242 0.396484 25.2713V18.1299C0.422934 18.606 0.79323 19.1085 1.48092 19.5053L13.8462 26.6467C15.1554 27.4005 17.1392 27.4799 18.2765 26.8318L31.2765 19.3201C31.7659 19.0424 32.0171 18.6589 32.0436 18.2621V25.4168C32.07 25.8532 31.8188 26.2896 31.2765 26.5938Z" fill="#243447"/>
<path d="M31.1099 19.2836L31.1099 19.2835L31.1044 19.2867L18.1016 26.8L18.1009 26.8005C17.6037 27.0895 16.8919 27.2271 16.1302 27.1941C15.3719 27.1613 14.6021 26.9607 14.0009 26.6146C14.0009 26.6146 14.0009 26.6146 14.0008 26.6146L1.63335 19.4719L1.63322 19.4718C1.00555 19.1097 0.746704 18.6934 0.713992 18.3675V9.81103C0.713992 9.79465 0.720902 9.77906 0.731223 9.76873C0.735972 9.76399 0.740583 9.76123 0.744465 9.7597C0.74793 9.75833 0.752881 9.75709 0.760711 9.75755L0.76815 9.75798L0.775601 9.75809L14.2943 9.94327L18.1567 9.99618L18.1568 9.99618L31.7064 10.1777V18.5087C31.6962 18.7569 31.5385 19.0467 31.1099 19.2836ZM31.9797 10.1814C31.9793 10.1814 31.9789 10.1814 31.9785 10.1814L31.9797 10.1814V10.1814ZM31.9839 10.1814C31.9834 10.1814 31.9823 10.1814 31.9805 10.1814H31.9842L31.9839 10.1814Z" fill="#EEF2F5" stroke="#243447" stroke-width="0.661382"/>
<path d="M31.0858 10.6841L31.0857 10.6842L18.0829 18.1843L18.0817 18.1849C17.5988 18.4657 16.9008 18.6023 16.1472 18.5697C15.3976 18.5373 14.6386 18.339 14.0481 17.999C14.048 17.999 14.048 17.999 14.0479 17.9989L1.68052 10.8563L1.68006 10.856C1.08264 10.512 0.835836 10.1258 0.799425 9.83452C0.766956 9.57477 0.888488 9.261 1.36105 8.99175L1.36287 8.9907L14.3657 1.49063L14.3668 1.48994C14.8497 1.2092 15.5478 1.07254 16.3014 1.10517C17.0509 1.13763 17.81 1.33593 18.4005 1.67587C18.4005 1.67591 18.4006 1.67594 18.4006 1.67597L30.768 8.81863L30.7685 8.8189C31.3649 9.16227 31.6086 9.54781 31.644 9.83898C31.6758 10.1008 31.5521 10.4153 31.0858 10.6841Z" fill="#EEF2F5" stroke="#243447" stroke-width="0.793659" stroke-linecap="round" stroke-linejoin="round"/>
<path d="M10.873 5.28715L13.9286 3.51465L22.4869 8.46179C25.1854 10.0227 24.9737 11.7952 22.4869 13.237C19.9075 14.7317 16.6006 14.9037 13.7699 13.2634L16.8123 11.5041C17.8837 12.1258 18.8758 12.1523 19.6562 11.7026C20.397 11.2793 20.3573 10.7634 19.4181 10.2211L10.873 5.28715Z" fill="#243447"/>
</svg>
