<svg width="207" height="59" viewBox="0 0 207 59" fill="none" xmlns="http://www.w3.org/2000/svg">
<path d="M0.318359 0.805664H206.318V58.8057H0.318359V0.805664Z" fill="white"/>
<path d="M74.8148 41.6384C73.3079 41.6384 72.0439 41.1284 71.0235 40.1076C70.0031 39.0872 69.4927 37.8139 69.4927 36.2877C69.4927 34.7619 70.0031 33.4886 71.0235 32.4678C72.0439 31.4478 73.3079 30.937 74.8148 30.937C76.3599 30.937 77.6138 31.4954 78.5774 32.6109L77.6618 33.4979C76.9654 32.6302 76.0165 32.196 74.8148 32.196C73.6988 32.196 72.7569 32.573 71.9894 33.3262C71.2215 34.0798 70.8375 35.067 70.8375 36.2877C70.8375 37.5088 71.2215 38.496 71.9894 39.2492C72.7569 40.0032 73.6988 40.3794 74.8148 40.3794C76.0451 40.3794 77.0945 39.8837 77.9622 38.8915L78.8778 39.8075C78.4104 40.3701 77.8238 40.816 77.1181 41.145C76.4121 41.4737 75.6445 41.6384 74.8148 41.6384Z" fill="#5F6368"/>
<path d="M81.5488 31.1659V34.3992L81.4916 35.3721H81.5488C81.7394 35.0384 82.0399 34.7546 82.4501 34.521C82.86 34.2871 83.2988 34.1707 83.7663 34.1707C84.634 34.1707 85.2971 34.4375 85.755 34.9715C86.2128 35.5059 86.4417 36.2212 86.4417 37.1179V41.4095H85.1255V37.3178C85.1255 36.0209 84.5482 35.3721 83.3944 35.3721C82.8507 35.3721 82.4072 35.589 82.0638 36.0232C81.7205 36.4575 81.5488 36.9601 81.5488 37.5324V41.4095H80.2326V31.1659H81.5488Z" fill="#5F6368"/>
<path d="M89.2671 41.4096H87.9509V34.3993H89.2099V35.5438H89.2671C89.4005 35.1626 89.6747 34.8474 90.0896 34.5996C90.5045 34.3517 90.9074 34.2276 91.2987 34.2276C91.6896 34.2276 92.0187 34.2848 92.2858 34.3993L91.7851 35.6297C91.6134 35.5632 91.3795 35.5295 91.0841 35.5295C90.6069 35.5295 90.1851 35.7178 89.8177 36.0948C89.4508 36.4714 89.2671 36.9652 89.2671 37.5754V41.4096Z" fill="#5F6368"/>
<path d="M94.4775 39.7428C94.9302 40.2053 95.4669 40.4369 96.0872 40.4369C96.707 40.4369 97.2433 40.2053 97.6965 39.7428C98.1496 39.2804 98.3762 38.6679 98.3762 37.9042C98.3762 37.1413 98.1496 36.5284 97.6965 36.066C97.2433 35.6035 96.707 35.3719 96.0872 35.3719C95.4669 35.3719 94.9302 35.6035 94.4775 36.066C94.0247 36.5284 93.7981 37.1413 93.7981 37.9042C93.7981 38.6679 94.0247 39.2804 94.4775 39.7428ZM93.4976 35.2362C94.1747 34.5259 95.0377 34.1706 96.0872 34.1706C97.1362 34.1706 97.9992 34.5259 98.6767 35.2362C99.3537 35.9469 99.6924 36.8362 99.6924 37.9042C99.6924 38.973 99.3537 39.8623 98.6767 40.5726C97.9992 41.2833 97.1362 41.6382 96.0872 41.6382C95.0377 41.6382 94.1747 41.2833 93.4976 40.5726C92.8202 39.8623 92.4819 38.973 92.4819 37.9042C92.4819 36.8362 92.8202 35.9469 93.4976 35.2362Z" fill="#5F6368"/>
<path d="M101.041 41.4096V34.3993H102.3V35.3722H102.357C102.558 35.0381 102.866 34.7546 103.28 34.5211C103.695 34.2872 104.108 34.1704 104.518 34.1704C105.605 34.1704 106.344 34.6189 106.735 35.5152C107.308 34.6189 108.123 34.1704 109.182 34.1704C110.012 34.1704 110.636 34.4353 111.056 34.9642C111.476 35.4936 111.685 36.2116 111.685 37.1176V41.4096H110.37V37.3179C110.37 36.6122 110.241 36.1115 109.983 35.8157C109.725 35.5202 109.334 35.3722 108.81 35.3722C108.295 35.3722 107.868 35.5918 107.53 36.0303C107.191 36.4691 107.021 36.9699 107.021 37.5325V41.4096H105.705V37.3179C105.705 36.6122 105.576 36.1115 105.319 35.8157C105.062 35.5202 104.671 35.3722 104.146 35.3722C103.631 35.3722 103.204 35.5918 102.866 36.0303C102.527 36.4691 102.357 36.9699 102.357 37.5325V41.4096H101.041Z" fill="#5F6368"/>
<path d="M118.481 37.0603C118.453 36.6597 118.269 36.2785 117.93 35.9158C117.592 35.5535 117.088 35.3721 116.421 35.3721C115.935 35.3721 115.512 35.5248 115.155 35.8299C114.797 36.135 114.551 36.5453 114.418 37.0603H118.481ZM116.593 41.6384C115.534 41.6384 114.673 41.2858 114.01 40.5797C113.347 39.8741 113.016 38.9824 113.016 37.9044C113.016 36.884 113.338 36.0062 113.982 35.272C114.625 34.5377 115.448 34.1704 116.45 34.1704C117.489 34.1704 118.321 34.5091 118.946 35.1861C119.57 35.8632 119.883 36.7695 119.883 37.9044L119.869 38.148H114.333C114.37 38.8537 114.606 39.4116 115.041 39.8215C115.474 40.2317 115.982 40.4367 116.564 40.4367C117.508 40.4367 118.147 40.0361 118.481 39.2349L119.654 39.7213C119.425 40.265 119.049 40.7205 118.524 41.0878C117.999 41.4548 117.356 41.6384 116.593 41.6384Z" fill="#5F6368"/>
<path d="M135.917 31.1659L133.184 41.4095H131.839L129.636 34.6567H129.578L127.375 41.4095H126.031L123.183 31.1659H124.557L126.717 39.2206H126.774L128.992 32.5394H130.222L132.44 39.2206H132.497L134.543 31.1659H135.917Z" fill="#5F6368"/>
<path d="M141.447 37.0603C141.418 36.6597 141.235 36.2785 140.896 35.9158C140.558 35.5535 140.054 35.3721 139.387 35.3721C138.9 35.3721 138.478 35.5248 138.12 35.8299C137.763 36.135 137.517 36.5453 137.384 37.0603H141.447ZM139.559 41.6384C138.5 41.6384 137.639 41.2858 136.976 40.5797C136.313 39.8741 135.982 38.9824 135.982 37.9044C135.982 36.884 136.304 36.0062 136.947 35.272C137.591 34.5377 138.414 34.1704 139.415 34.1704C140.455 34.1704 141.287 34.5091 141.912 35.1861C142.536 35.8632 142.849 36.7695 142.849 37.9044L142.835 38.148H137.298C137.336 38.8537 137.572 39.4116 138.006 39.8215C138.44 40.2317 138.948 40.4367 139.53 40.4367C140.474 40.4367 141.113 40.0361 141.447 39.2349L142.62 39.7213C142.391 40.265 142.015 40.7205 141.49 41.0878C140.965 41.4548 140.321 41.6384 139.559 41.6384Z" fill="#5F6368"/>
<path d="M147.693 40.4368C148.303 40.4368 148.828 40.2052 149.267 39.7428C149.705 39.2803 149.925 38.6678 149.925 37.9042C149.925 37.1417 149.705 36.5288 149.267 36.0659C148.828 35.6035 148.303 35.3719 147.693 35.3719C147.073 35.3719 146.546 35.6008 146.112 36.059C145.678 36.5164 145.461 37.1316 145.461 37.9042C145.461 38.6767 145.678 39.2923 146.112 39.7501C146.546 40.2075 147.073 40.4368 147.693 40.4368ZM147.908 41.6382C147.373 41.6382 146.894 41.5241 146.47 41.2952C146.045 41.0663 145.728 40.7802 145.518 40.4368H145.461V41.4097H144.202V31.1657H145.518V34.3994L145.461 35.3719H145.518C145.728 35.0289 146.045 34.7424 146.47 34.5139C146.894 34.285 147.373 34.1705 147.908 34.1705C148.813 34.1705 149.596 34.5282 150.254 35.2431C150.912 35.9588 151.241 36.8459 151.241 37.9042C151.241 38.9629 150.912 39.8499 150.254 40.5656C149.596 41.2809 148.813 41.6382 147.908 41.6382Z" fill="#5F6368"/>
<path d="M158.328 41.6384C157.584 41.6384 156.856 41.3952 156.146 40.9088C155.435 40.4223 154.97 39.7406 154.751 38.8629L155.953 38.3765C156.096 38.9395 156.389 39.4139 156.833 39.8002C157.276 40.1865 157.774 40.3794 158.328 40.3794C158.9 40.3794 159.389 40.229 159.794 39.929C160.199 39.6285 160.402 39.2206 160.402 38.7055C160.402 38.1337 160.199 37.6925 159.794 37.3824C159.389 37.0723 158.747 36.7838 157.87 36.5166C156.964 36.2309 156.277 35.8612 155.81 35.408C155.342 34.9553 155.109 34.3756 155.109 33.67C155.109 32.9353 155.4 32.2962 155.982 31.7529C156.563 31.2088 157.321 30.937 158.256 30.937C159.124 30.937 159.83 31.1543 160.373 31.5882C160.917 32.0224 161.27 32.4964 161.432 33.0115L160.23 33.5122C160.145 33.1882 159.932 32.8878 159.594 32.6109C159.255 32.3344 158.819 32.196 158.285 32.196C157.779 32.196 157.348 32.3368 156.99 32.6182C156.632 32.8994 156.453 33.2501 156.453 33.67C156.453 34.0512 156.618 34.3733 156.947 34.6355C157.276 34.8976 157.76 35.1339 158.4 35.3435C158.905 35.5059 159.327 35.6632 159.665 35.8156C160.004 35.9683 160.347 36.1709 160.696 36.4238C161.044 36.6767 161.306 36.9911 161.482 37.3681C161.659 37.7451 161.747 38.1812 161.747 38.6769C161.747 39.173 161.644 39.6165 161.439 40.0074C161.234 40.3987 160.962 40.7085 160.624 40.9378C160.285 41.1663 159.92 41.3403 159.529 41.4598C159.138 41.5789 158.738 41.6384 158.328 41.6384Z" fill="#5F6368"/>
<path d="M166.05 41.524C165.316 41.524 164.755 41.3287 164.369 40.9374C163.983 40.5465 163.79 39.9932 163.79 39.2778V35.601H162.56V34.3993H163.79V32.2533H165.106V34.3993H166.823V35.601H165.106V39.1777C165.106 39.941 165.421 40.3226 166.05 40.3226C166.289 40.3226 166.489 40.2843 166.651 40.2078L167.109 41.3384C166.823 41.4621 166.47 41.524 166.05 41.524Z" fill="#5F6368"/>
<path d="M169.654 39.7428C170.107 40.2053 170.643 40.4369 171.263 40.4369C171.883 40.4369 172.419 40.2053 172.873 39.7428C173.325 39.2804 173.552 38.6679 173.552 37.9042C173.552 37.1413 173.325 36.5285 172.873 36.066C172.419 35.6035 171.883 35.3719 171.263 35.3719C170.643 35.3719 170.107 35.6035 169.654 36.066C169.2 36.5285 168.974 37.1413 168.974 37.9042C168.974 38.6679 169.2 39.2804 169.654 39.7428ZM168.674 35.2362C169.351 34.5259 170.214 34.1706 171.263 34.1706C172.312 34.1706 173.175 34.5259 173.852 35.2362C174.53 35.9469 174.868 36.8362 174.868 37.9042C174.868 38.973 174.53 39.8623 173.852 40.5726C173.175 41.2833 172.312 41.6383 171.263 41.6383C170.214 41.6383 169.351 41.2833 168.674 40.5726C167.996 39.8623 167.658 38.973 167.658 37.9042C167.658 36.8362 167.996 35.9469 168.674 35.2362Z" fill="#5F6368"/>
<path d="M177.331 41.4096H176.015V34.3993H177.274V35.5438H177.331C177.465 35.1626 177.739 34.8475 178.154 34.5996C178.569 34.3518 178.972 34.2276 179.363 34.2276C179.754 34.2276 180.083 34.2849 180.35 34.3993L179.849 35.6297C179.677 35.5632 179.444 35.5295 179.148 35.5295C178.671 35.5295 178.249 35.7178 177.882 36.0948C177.515 36.4715 177.331 36.9652 177.331 37.5754V41.4096Z" fill="#5F6368"/>
<path d="M185.843 37.0603C185.815 36.6597 185.631 36.2785 185.292 35.9158C184.954 35.5535 184.451 35.3721 183.783 35.3721C183.297 35.3721 182.875 35.5249 182.517 35.8299C182.16 36.135 181.914 36.5453 181.78 37.0603H185.843ZM183.955 41.6384C182.896 41.6384 182.035 41.2858 181.372 40.5797C180.71 39.8741 180.378 38.9824 180.378 37.9044C180.378 36.884 180.7 36.0063 181.344 35.272C181.988 34.5377 182.81 34.1704 183.812 34.1704C184.852 34.1704 185.684 34.5091 186.308 35.1861C186.933 35.8632 187.245 36.7695 187.245 37.9044L187.231 38.148H181.695C181.732 38.8537 181.969 39.4116 182.403 39.8215C182.837 40.2317 183.344 40.4367 183.926 40.4367C184.871 40.4367 185.51 40.0361 185.843 39.2349L187.017 39.7213C186.788 40.265 186.411 40.7205 185.886 41.0878C185.362 41.4548 184.718 41.6384 183.955 41.6384Z" fill="#5F6368"/>
<path d="M72.4571 22.6105H75.0338L73.7671 19.1135H73.7238L72.4571 22.6105ZM70.2593 25.642L73.1825 17.8901H74.3084L77.2316 25.642H76.1273L75.3803 23.5416H72.1215L71.3636 25.642H70.2593Z" fill="#5F6368"/>
<path d="M79.108 25.6419L76.9644 20.3369H78.047L79.6061 24.451H79.6277L81.2084 20.3369H82.2694L80.1041 25.6419H79.108Z" fill="#5F6368"/>
<path d="M84.6712 24.9056C85.0826 24.9056 85.4562 24.7525 85.7918 24.4458C86.1274 24.1392 86.2952 23.7761 86.2952 23.3574C86.0137 23.1265 85.5915 23.0113 85.0285 23.0113C84.5448 23.0113 84.1802 23.1157 83.935 23.3249C83.6895 23.5345 83.5669 23.7796 83.5669 24.0611C83.5669 24.321 83.6787 24.527 83.9025 24.6782C84.126 24.8302 84.3824 24.9056 84.6712 24.9056ZM84.5088 25.8154C83.9458 25.8154 83.4749 25.653 83.0959 25.3282C82.717 25.003 82.5275 24.5738 82.5275 24.0398C82.5275 23.4626 82.751 23.0094 83.1988 22.6807C83.6462 22.3524 84.1983 22.1885 84.8553 22.1885C85.4399 22.1885 85.9198 22.2964 86.2952 22.5133V22.3613C86.2952 21.9716 86.1614 21.6595 85.8946 21.4248C85.6275 21.1905 85.2992 21.073 84.9094 21.073C84.6206 21.073 84.3588 21.1418 84.1245 21.2787C83.8898 21.4163 83.7293 21.6035 83.6427 21.8416L82.7333 21.4519C82.8558 21.1344 83.0975 20.8402 83.4586 20.5695C83.8194 20.2988 84.2958 20.1635 84.8878 20.1635C85.566 20.1635 86.129 20.3623 86.5767 20.759C87.0241 21.1561 87.248 21.7156 87.248 22.4371V25.6418H86.2952V24.9056H86.2519C85.8548 25.5119 85.2737 25.8154 84.5088 25.8154Z" fill="#5F6368"/>
<path d="M89.5573 25.6417H88.5613V20.3367H89.5573V25.6417ZM89.5573 19.005C89.42 19.1422 89.2542 19.2111 89.0593 19.2111C88.8644 19.2111 88.6981 19.1422 88.5613 19.005C88.424 18.8681 88.3552 18.7018 88.3552 18.507C88.3552 18.3121 88.424 18.1466 88.5613 18.0089C88.6981 17.872 88.8644 17.8032 89.0593 17.8032C89.2542 17.8032 89.42 17.872 89.5573 18.0089C89.6942 18.1466 89.763 18.3121 89.763 18.507C89.763 18.7018 89.6942 18.8681 89.5573 19.005Z" fill="#5F6368"/>
<path d="M91.8522 25.6417H90.8561V17.8898H91.8522V25.6417Z" fill="#5F6368"/>
<path d="M95.0327 24.9056C95.4441 24.9056 95.8176 24.7525 96.1532 24.4458C96.4888 24.1392 96.6567 23.7761 96.6567 23.3574C96.3752 23.1265 95.9529 23.0113 95.3899 23.0113C94.9062 23.0113 94.5416 23.1157 94.2964 23.3249C94.0509 23.5345 93.9283 23.7796 93.9283 24.0611C93.9283 24.321 94.0401 24.527 94.264 24.6782C94.4875 24.8302 94.7438 24.9056 95.0327 24.9056ZM94.8703 25.8154C94.3073 25.8154 93.8363 25.653 93.4574 25.3282C93.0784 25.003 92.889 24.5738 92.889 24.0398C92.889 23.4626 93.1125 23.0094 93.5602 22.6807C94.0076 22.3524 94.5598 22.1885 95.2167 22.1885C95.8014 22.1885 96.2812 22.2964 96.6567 22.5133V22.3613C96.6567 21.9716 96.5229 21.6595 96.2561 21.4248C95.9889 21.1905 95.6606 21.073 95.2708 21.073C94.982 21.073 94.7202 21.1418 94.4859 21.2787C94.2512 21.4163 94.0907 21.6035 94.0041 21.8416L93.0947 21.4519C93.2173 21.1344 93.4589 20.8402 93.8201 20.5695C94.1808 20.2988 94.6572 20.1635 95.2492 20.1635C95.9274 20.1635 96.4904 20.3623 96.9382 20.759C97.3855 21.1561 97.6094 21.7156 97.6094 22.4371V25.6418H96.6567V24.9056H96.6134C96.2162 25.5119 95.6351 25.8154 94.8703 25.8154Z" fill="#5F6368"/>
<path d="M101.357 24.9056C101.819 24.9056 102.216 24.7308 102.548 24.3809C102.88 24.0306 103.046 23.567 103.046 22.9893C103.046 22.412 102.88 21.9484 102.548 21.598C102.216 21.2481 101.819 21.073 101.357 21.073C100.888 21.073 100.489 21.2462 100.16 21.593C99.8322 21.9391 99.6679 22.4046 99.6679 22.9893C99.6679 23.5743 99.8322 24.0398 100.16 24.3859C100.489 24.7328 100.888 24.9056 101.357 24.9056ZM101.519 25.8154C101.115 25.8154 100.752 25.7284 100.431 25.5556C100.11 25.382 99.8697 25.1654 99.7112 24.9056H99.6679V25.6418H98.7151V17.8899H99.7112V20.3371L99.6679 21.073H99.7112C99.8697 20.8131 100.11 20.5966 100.431 20.4234C100.752 20.2501 101.115 20.1635 101.519 20.1635C102.205 20.1635 102.797 20.4346 103.295 20.9755C103.793 21.5168 104.041 22.1885 104.041 22.9893C104.041 23.7904 103.793 24.4621 103.295 25.003C102.797 25.5444 102.205 25.8154 101.519 25.8154Z" fill="#5F6368"/>
<path d="M105.974 25.6417H104.978V17.8898H105.974V25.6417Z" fill="#5F6368"/>
<path d="M110.965 22.3507C110.943 22.0476 110.804 21.7591 110.548 21.4846C110.292 21.2105 109.911 21.0728 109.406 21.0728C109.038 21.0728 108.718 21.1884 108.447 21.4196C108.177 21.6505 107.991 21.961 107.89 22.3507H110.965ZM109.536 25.8153C108.734 25.8153 108.083 25.5485 107.582 25.0141C107.08 24.4801 106.829 23.8054 106.829 22.9891C106.829 22.2169 107.073 21.553 107.56 20.9974C108.047 20.4418 108.669 20.1637 109.427 20.1637C110.214 20.1637 110.844 20.4201 111.317 20.9324C111.789 21.4448 112.026 22.1307 112.026 22.9891L112.015 23.1736H107.825C107.854 23.7079 108.033 24.1302 108.361 24.4399C108.689 24.7504 109.073 24.9054 109.514 24.9054C110.229 24.9054 110.712 24.6023 110.965 23.9964L111.853 24.3645C111.68 24.7755 111.394 25.1204 110.998 25.3984C110.6 25.6761 110.113 25.8153 109.536 25.8153Z" fill="#5F6368"/>
<path d="M116.642 25.6417H115.646V20.3367H116.642V25.6417ZM116.642 19.005C116.505 19.1422 116.339 19.2111 116.144 19.2111C115.949 19.2111 115.783 19.1422 115.646 19.005C115.509 18.8681 115.44 18.7018 115.44 18.507C115.44 18.3121 115.509 18.1466 115.646 18.0089C115.783 17.872 115.949 17.8032 116.144 17.8032C116.339 17.8032 116.505 17.872 116.642 18.0089C116.779 18.1466 116.848 18.3121 116.848 18.507C116.848 18.7018 116.779 18.8681 116.642 19.005Z" fill="#5F6368"/>
<path d="M118.894 20.3369V21.0728H118.937C119.081 20.8207 119.309 20.6057 119.619 20.4286C119.929 20.2519 120.261 20.1637 120.615 20.1637C121.272 20.1637 121.774 20.3655 122.12 20.77C122.467 21.1741 122.64 21.7154 122.64 22.3936V25.642H121.643V22.5456C121.643 21.5642 121.207 21.0728 120.334 21.0728C119.922 21.0728 119.587 21.2371 119.327 21.5658C119.067 21.894 118.937 22.2749 118.937 22.708V25.642H117.941V20.3369H118.894Z" fill="#5F6368"/>
<path d="M128.721 25.7284C128.165 25.7284 127.741 25.5807 127.449 25.2849C127.156 24.9887 127.01 24.5699 127.01 24.0286V21.2461H126.079V20.3371H127.01V18.7127H128.006V20.3371H129.305V21.2461H128.006V23.9528C128.006 24.5305 128.245 24.8189 128.721 24.8189C128.901 24.8189 129.053 24.7903 129.176 24.7327L129.522 25.588C129.305 25.6816 129.038 25.7284 128.721 25.7284Z" fill="#5F6368"/>
<path d="M131.308 17.8901V20.3369L131.265 21.0727H131.308C131.453 20.8206 131.68 20.6056 131.991 20.4285C132.3 20.2518 132.633 20.1637 132.987 20.1637C133.643 20.1637 134.145 20.3655 134.491 20.77C134.838 21.174 135.011 21.7157 135.011 22.3936V25.642H134.015V22.5455C134.015 21.5642 133.578 21.0727 132.705 21.0727C132.294 21.0727 131.958 21.2371 131.698 21.5657C131.438 21.894 131.308 22.2749 131.308 22.7079V25.642H130.312V17.8901H131.308Z" fill="#5F6368"/>
<path d="M140.013 22.3507C139.991 22.0476 139.852 21.7591 139.596 21.4846C139.34 21.2105 138.959 21.0728 138.454 21.0728C138.086 21.0728 137.766 21.1884 137.495 21.4196C137.225 21.6505 137.039 21.961 136.938 22.3507H140.013ZM138.584 25.8153C137.782 25.8153 137.131 25.5485 136.63 25.0141C136.128 24.4801 135.877 23.8054 135.877 22.9891C135.877 22.2169 136.121 21.553 136.608 20.9974C137.095 20.4418 137.717 20.1637 138.475 20.1637C139.262 20.1637 139.892 20.4201 140.365 20.9324C140.837 21.4448 141.074 22.1307 141.074 22.9891L141.063 23.1736H136.873C136.902 23.7079 137.081 24.1302 137.409 24.4399C137.737 24.7504 138.121 24.9054 138.562 24.9054C139.277 24.9054 139.76 24.6023 140.013 23.9964L140.901 24.3645C140.728 24.7755 140.442 25.1204 140.046 25.3984C139.648 25.6761 139.161 25.8153 138.584 25.8153Z" fill="#5F6368"/>
<g clip-path="url(#clip0)">
<path d="M16.2056 11.4042V45.3017C16.2056 46.9002 17.5133 48.2075 19.1114 48.2075H55.9147C57.5128 48.2075 58.8205 46.9002 58.8205 45.3017V11.4042H16.2056ZM30.7334 17.215C30.7334 16.1447 31.6003 15.2778 32.6706 15.2778H42.3558C43.4257 15.2778 44.293 16.1447 44.293 17.215C44.293 18.2849 43.4257 19.1518 42.3558 19.1518H32.6706C31.6003 19.1518 30.7334 18.2849 30.7334 17.215Z" fill="#EEEEEE"/>
<mask id="mask0" mask-type="alpha" maskUnits="userSpaceOnUse" x="19" y="26" width="37" height="38">
<path d="M19.1113 45.3023C19.1113 35.1392 27.3502 26.9004 37.5133 26.9004C47.6764 26.9004 55.9152 35.1392 55.9152 45.3023C55.9152 55.4655 47.6764 63.7043 37.5133 63.7043C27.3502 63.7043 19.1113 55.4655 19.1113 45.3023Z" fill="#F1F1F1"/>
</mask>
<g mask="url(#mask0)">
<path d="M22.0337 26.9001V49.4834H30.2685L37.5131 36.9365H55.915V26.9001H22.0337ZM22.0337 26.9001V49.4834H30.2685L37.5131 36.9365H55.915V26.9001H22.0337Z" fill="#DB4437"/>
<path d="M19.1113 63.7036H36.6269L44.7578 55.5728V49.4855L30.2686 49.4832L19.1113 30.3474V63.7036ZM19.1113 63.7036H36.6269L44.7578 55.5728V49.4855L30.2686 49.4832L19.1113 30.3474V63.7036Z" fill="#0F9D58"/>
<path d="M37.5133 36.9363L44.7579 49.4833L36.6294 63.7041H55.9152V36.9363H37.5133ZM37.5133 36.9363L44.7579 49.4833L36.6294 63.7041H55.9152V36.9363H37.5133Z" fill="#FFCD40"/>
<path d="M37.513 36.9365C42.1333 36.9365 45.8785 40.6822 45.8785 45.302C45.8785 49.9223 42.1333 53.668 37.513 53.668C32.8927 53.668 29.1475 49.9223 29.1475 45.302C29.1475 40.6822 32.8927 36.9365 37.513 36.9365Z" fill="#F1F1F1"/>
<path d="M37.5132 38.6093C41.2094 38.6093 44.2057 41.6056 44.2057 45.3017C44.2057 48.9979 41.2094 51.9941 37.5132 51.9941C33.8171 51.9941 30.8208 48.9979 30.8208 45.3017C30.8208 41.6056 33.8171 38.6093 37.5132 38.6093Z" fill="#4285F4"/>
</g>
<path opacity="0.0500031" fill-rule="evenodd" clip-rule="evenodd" d="M58.821 11.4038H16.2061V29.8057H58.821V11.4038ZM32.6707 15.2778C31.6004 15.2778 30.7335 16.1447 30.7335 17.215C30.7335 18.2849 31.6004 19.1518 32.6707 19.1518H42.3559C43.4258 19.1518 44.2931 18.2849 44.2931 17.215C44.2931 16.1447 43.4258 15.2778 42.3559 15.2778H32.6707Z" fill="#212121"/>
<path opacity="0.100006" d="M55.9152 47.9655H19.1115C17.5138 47.9655 16.2061 46.6578 16.2061 45.0597V45.3017C16.2061 46.9002 17.5138 48.2075 19.1115 48.2075H55.9152C57.5133 48.2075 58.821 46.9002 58.821 45.3017V45.0597C58.821 46.6578 57.5133 47.9655 55.9152 47.9655ZM32.6707 15.2778H42.3559C43.3849 15.2778 44.2255 16.0817 44.2858 17.094C44.2881 17.053 44.2931 17.014 44.2931 16.973C44.2931 15.9027 43.4262 15.0358 42.3559 15.0358H32.6707C31.6008 15.0358 30.7335 15.9027 30.7335 16.973C30.7335 17.014 30.7362 17.053 30.7412 17.094C30.8016 16.0817 31.6418 15.2778 32.6707 15.2778Z" fill="#231F20"/>
<path opacity="0.2" d="M16.2061 11.6459H58.821V11.4038H16.2061V11.6459ZM42.3559 19.1518H32.6707C31.6418 19.1518 30.8016 18.3483 30.7409 17.3361C30.7362 17.3774 30.7335 17.4161 30.7335 17.4571C30.7335 18.5274 31.6004 19.3943 32.6707 19.3943H42.3559C43.4262 19.3943 44.2931 18.5274 44.2931 17.4571C44.2931 17.4161 44.2904 17.3774 44.2858 17.3361C44.2251 18.3483 43.3849 19.1518 42.3559 19.1518Z" fill="white"/>
<path opacity="0.0200043" d="M16.2061 29.5636H58.821V29.8057H16.2061V29.5636Z" fill="#212121"/>
<path opacity="0.05" d="M16.2061 29.8057H58.821V30.0477H16.2061V29.8057Z" fill="white"/>
<path d="M16.2056 11.4042V45.3017C16.2056 46.9002 17.5133 48.2075 19.1114 48.2075H55.9147C57.5128 48.2075 58.8205 46.9002 58.8205 45.3017V11.4042H16.2056ZM30.7334 17.215C30.7334 16.1447 31.6003 15.2778 32.6706 15.2778H42.3558C43.4257 15.2778 44.293 16.1447 44.293 17.215C44.293 18.2849 43.4257 19.1518 42.3558 19.1518H32.6706C31.6003 19.1518 30.7334 18.2849 30.7334 17.215Z" fill="url(#paint0_radial)"/>
</g>
<path d="M0.318359 0.805664V-0.194336H-0.681641V0.805664H0.318359ZM206.318 0.805664H207.318V-0.194336H206.318V0.805664ZM206.318 58.8057V59.8057H207.318V58.8057H206.318ZM0.318359 58.8057H-0.681641V59.8057H0.318359V58.8057ZM0.318359 1.80566H206.318V-0.194336H0.318359V1.80566ZM205.318 0.805664V58.8057H207.318V0.805664H205.318ZM206.318 57.8057H0.318359V59.8057H206.318V57.8057ZM1.31836 58.8057V0.805664H-0.681641V58.8057H1.31836Z" fill="#DBDBDB"/>
<defs>
<radialGradient id="paint0_radial" cx="0" cy="0" r="1" gradientUnits="userSpaceOnUse" gradientTransform="translate(16.0853 11.2451) scale(55.1076)">
<stop stop-color="white" stop-opacity="0.2"/>
<stop offset="1" stop-color="white" stop-opacity="0"/>
</radialGradient>
<clipPath id="clip0">
<rect width="42.6149" height="36.8037" fill="white" transform="translate(16.2061 11.4038)"/>
</clipPath>
</defs>
</svg>
