<svg width="1175" height="326" viewBox="0 0 1175 326" fill="none" xmlns="http://www.w3.org/2000/svg">
<g clip-path="url(#clip0)">
<rect width="1174.74" height="325.35" fill="#C51F5D"/>
<rect width="1174.74" height="325.35" fill="#C51F5D"/>
<rect width="1174.74" height="325.35" fill="url(#paint0_radial)"/>
<rect width="1174.74" height="325.35" fill="#3A495A"/>
<path d="M1051.16 248.887L1052.63 250.216" stroke="white" stroke-opacity="0.19" stroke-width="1.2159" stroke-linecap="round" stroke-linejoin="round"/>
<path d="M1062.1 248.887L1060.63 250.216" stroke="white" stroke-opacity="0.19" stroke-width="1.2159" stroke-linecap="round" stroke-linejoin="round"/>
<path d="M1062.71 258.614C1062.71 260.227 1062.07 261.773 1060.93 262.913C1059.79 264.053 1058.25 264.694 1056.63 264.694C1055.02 264.694 1053.47 264.053 1052.33 262.913C1051.19 261.773 1050.55 260.227 1050.55 258.614V254.967C1050.55 253.354 1051.19 251.808 1052.33 250.668C1053.47 249.528 1055.02 248.887 1056.63 248.887C1058.25 248.887 1059.79 249.528 1060.93 250.668C1062.07 251.808 1062.71 253.354 1062.71 254.967V258.614Z" stroke="white" stroke-opacity="0.19" stroke-width="1.2159" stroke-linecap="round" stroke-linejoin="round"/>
<path d="M1062.71 256.183H1050.55" stroke="white" stroke-opacity="0.19" stroke-width="1.2159" stroke-linecap="round" stroke-linejoin="round"/>
<path d="M1054.51 254.359C1055.01 254.359 1055.42 253.951 1055.42 253.447C1055.42 252.943 1055.01 252.535 1054.51 252.535C1054 252.535 1053.59 252.943 1053.59 253.447C1053.59 253.951 1054 254.359 1054.51 254.359Z" fill="white" fill-opacity="0.19"/>
<path d="M1058.76 254.359C1059.26 254.359 1059.67 253.951 1059.67 253.447C1059.67 252.943 1059.26 252.535 1058.76 252.535C1058.26 252.535 1057.85 252.943 1057.85 253.447C1057.85 253.951 1058.26 254.359 1058.76 254.359Z" fill="white" fill-opacity="0.19"/>
<g opacity="0.93425">
<path d="M787.371 74.8872L785.513 74.1993" stroke="white" stroke-opacity="0.19" stroke-width="1.2159" stroke-linecap="round" stroke-linejoin="round"/>
<path d="M777.211 78.9518L778.082 77.1718" stroke="white" stroke-opacity="0.19" stroke-width="1.2159" stroke-linecap="round" stroke-linejoin="round"/>
<path d="M773.034 70.1466C772.435 68.6495 772.455 66.9759 773.09 65.4939C773.725 64.0118 774.923 62.8428 776.42 62.2439C777.917 61.645 779.591 61.6653 781.073 62.3004C782.555 62.9355 783.724 64.1333 784.323 65.6303L785.678 69.0171C786.277 70.5141 786.256 72.1877 785.621 73.6698C784.986 75.1518 783.788 76.3208 782.291 76.9197C780.794 77.5186 779.121 77.4983 777.639 76.8632C776.156 76.2281 774.987 75.0303 774.389 73.5333L773.034 70.1466Z" stroke="white" stroke-opacity="0.19" stroke-width="1.2159" stroke-linecap="round" stroke-linejoin="round"/>
<path d="M773.937 72.4044L785.226 67.8882" stroke="white" stroke-opacity="0.19" stroke-width="1.2159" stroke-linecap="round" stroke-linejoin="round"/>
<path d="M782.235 71.0492C781.767 71.2362 781.54 71.7669 781.727 72.2346C781.914 72.7022 782.444 72.9296 782.912 72.7425C783.38 72.5555 783.607 72.0247 783.42 71.5571C783.233 71.0895 782.702 70.8621 782.235 71.0492Z" fill="white" fill-opacity="0.19"/>
<path d="M778.283 72.6297C777.816 72.8168 777.588 73.3475 777.775 73.8151C777.962 74.2827 778.493 74.5102 778.961 74.3231C779.428 74.136 779.656 73.6053 779.469 73.1377C779.282 72.6701 778.751 72.4427 778.283 72.6297Z" fill="white" fill-opacity="0.19"/>
</g>
<g opacity="0.500367">
<path d="M161.407 256.579L163.388 256.615" stroke="white" stroke-opacity="0.19" stroke-width="1.2159" stroke-linecap="round" stroke-linejoin="round"/>
<path d="M169.657 249.39L169.421 251.357" stroke="white" stroke-opacity="0.19" stroke-width="1.2159" stroke-linecap="round" stroke-linejoin="round"/>
<path d="M176.506 256.324C177.565 257.539 178.098 259.126 177.987 260.734C177.877 262.343 177.132 263.842 175.916 264.901C174.701 265.96 173.114 266.493 171.506 266.383C169.897 266.272 168.398 265.527 167.339 264.312L164.942 261.562C163.883 260.346 163.35 258.76 163.461 257.151C163.571 255.542 164.316 254.044 165.532 252.984C166.747 251.925 168.334 251.392 169.942 251.503C171.551 251.613 173.05 252.358 174.109 253.574L176.506 256.324Z" stroke="white" stroke-opacity="0.19" stroke-width="1.2159" stroke-linecap="round" stroke-linejoin="round"/>
<path d="M174.908 254.49L165.741 262.479" stroke="white" stroke-opacity="0.19" stroke-width="1.2159" stroke-linecap="round" stroke-linejoin="round"/>
<path d="M167.522 258.507C167.902 258.176 167.941 257.6 167.61 257.221C167.279 256.841 166.703 256.801 166.324 257.132C165.944 257.463 165.904 258.039 166.235 258.419C166.566 258.799 167.142 258.838 167.522 258.507Z" fill="white" fill-opacity="0.19"/>
<path d="M170.73 255.711C171.11 255.381 171.15 254.805 170.819 254.425C170.488 254.045 169.912 254.006 169.532 254.336C169.153 254.667 169.113 255.243 169.444 255.623C169.775 256.003 170.351 256.042 170.73 255.711Z" fill="white" fill-opacity="0.19"/>
</g>
<g opacity="0.611247">
<path d="M199.955 71.8027L201.328 70.3747" stroke="white" stroke-opacity="0.19" stroke-width="1.2159" stroke-linecap="round" stroke-linejoin="round"/>
<path d="M200.293 60.8652L201.576 62.3756" stroke="white" stroke-opacity="0.19" stroke-width="1.2159" stroke-linecap="round" stroke-linejoin="round"/>
<path d="M210.035 60.5585C211.646 60.6084 213.172 61.2964 214.277 62.4713C215.381 63.6462 215.973 65.2116 215.923 66.8232C215.873 68.4348 215.185 69.9606 214.01 71.0649C212.836 72.1692 211.27 72.7615 209.659 72.7117L206.013 72.5988C204.401 72.5489 202.875 71.8608 201.771 70.686C200.667 69.5111 200.074 67.9457 200.124 66.3341C200.174 64.7225 200.862 63.1967 202.037 62.0924C203.212 60.9881 204.777 60.3957 206.389 60.4456L210.035 60.5585Z" stroke="white" stroke-opacity="0.19" stroke-width="1.2159" stroke-linecap="round" stroke-linejoin="round"/>
<path d="M207.604 60.4831L207.228 72.6362" stroke="white" stroke-opacity="0.19" stroke-width="1.2159" stroke-linecap="round" stroke-linejoin="round"/>
<path d="M205.527 68.6298C205.543 68.1264 205.147 67.7057 204.644 67.6901C204.14 67.6745 203.72 68.07 203.704 68.5734C203.688 69.0768 204.084 69.4975 204.587 69.5131C205.091 69.5287 205.511 69.1332 205.527 68.6298Z" fill="white" fill-opacity="0.19"/>
<path d="M205.659 64.3764C205.674 63.873 205.279 63.4523 204.776 63.4367C204.272 63.4211 203.851 63.8166 203.836 64.32C203.82 64.8234 204.216 65.2441 204.719 65.2597C205.223 65.2752 205.643 64.8798 205.659 64.3764Z" fill="white" fill-opacity="0.19"/>
</g>
<g opacity="0.558999">
<path d="M1005.32 172.347L1007.31 172.278" stroke="white" stroke-opacity="0.19" stroke-width="1.2159" stroke-linecap="round" stroke-linejoin="round"/>
<path d="M1013.18 164.73L1013.05 166.707" stroke="white" stroke-opacity="0.19" stroke-width="1.2159" stroke-linecap="round" stroke-linejoin="round"/>
<path d="M1020.39 171.291C1021.51 172.448 1022.13 174.004 1022.1 175.617C1022.08 177.229 1021.41 178.765 1020.26 179.887C1019.1 181.01 1017.54 181.626 1015.93 181.601C1014.32 181.576 1012.78 180.912 1011.66 179.754L1009.12 177.135C1008 175.978 1007.38 174.422 1007.41 172.809C1007.43 171.197 1008.1 169.661 1009.25 168.539C1010.41 167.416 1011.97 166.8 1013.58 166.825C1015.19 166.85 1016.73 167.514 1017.85 168.672L1020.39 171.291Z" stroke="white" stroke-opacity="0.19" stroke-width="1.2159" stroke-linecap="round" stroke-linejoin="round"/>
<path d="M1018.7 169.545L1009.97 178.008" stroke="white" stroke-opacity="0.19" stroke-width="1.2159" stroke-linecap="round" stroke-linejoin="round"/>
<path d="M1011.53 173.948C1011.9 173.598 1011.9 173.02 1011.55 172.659C1011.2 172.297 1010.63 172.288 1010.26 172.639C1009.9 172.989 1009.89 173.567 1010.24 173.928C1010.6 174.29 1011.17 174.299 1011.53 173.948Z" fill="white" fill-opacity="0.19"/>
<path d="M1014.59 170.986C1014.95 170.635 1014.96 170.058 1014.61 169.696C1014.26 169.335 1013.68 169.326 1013.32 169.676C1012.96 170.027 1012.95 170.604 1013.3 170.966C1013.65 171.327 1014.23 171.336 1014.59 170.986Z" fill="white" fill-opacity="0.19"/>
</g>
<g opacity="0.180132">
<path d="M595.05 267.516L596.768 266.529" stroke="white" stroke-opacity="0.19" stroke-width="1.2159" stroke-linecap="round" stroke-linejoin="round"/>
<path d="M598.431 257.109L599.241 258.917" stroke="white" stroke-opacity="0.19" stroke-width="1.2159" stroke-linecap="round" stroke-linejoin="round"/>
<path d="M607.87 259.536C609.403 260.034 610.676 261.121 611.408 262.558C612.14 263.994 612.271 265.663 611.773 267.196C611.275 268.73 610.188 270.003 608.751 270.735C607.315 271.467 605.646 271.598 604.113 271.1L600.644 269.973C599.11 269.475 597.837 268.388 597.105 266.951C596.373 265.514 596.242 263.846 596.74 262.312C597.238 260.779 598.325 259.506 599.762 258.774C601.199 258.042 602.867 257.911 604.401 258.409L607.87 259.536Z" stroke="white" stroke-opacity="0.19" stroke-width="1.2159" stroke-linecap="round" stroke-linejoin="round"/>
<path d="M605.557 258.785L601.8 270.349" stroke="white" stroke-opacity="0.19" stroke-width="1.2159" stroke-linecap="round" stroke-linejoin="round"/>
<path d="M601.286 266.027C601.442 265.548 601.18 265.033 600.701 264.878C600.222 264.722 599.707 264.984 599.552 265.463C599.396 265.942 599.658 266.457 600.137 266.612C600.616 266.768 601.131 266.506 601.286 266.027Z" fill="white" fill-opacity="0.19"/>
<path d="M602.602 261.979C602.757 261.5 602.495 260.986 602.016 260.83C601.537 260.675 601.023 260.937 600.867 261.416C600.711 261.895 600.974 262.409 601.453 262.565C601.931 262.721 602.446 262.458 602.602 261.979Z" fill="white" fill-opacity="0.19"/>
</g>
<path d="M798.767 221.027H800.232" stroke="#FFFAFA" stroke-opacity="0.16" stroke-width="1.46438" stroke-linecap="round" stroke-linejoin="round"/>
<path d="M807.553 221.027H809.018" stroke="#FFFAFA" stroke-opacity="0.16" stroke-width="1.46438" stroke-linecap="round" stroke-linejoin="round"/>
<path d="M798.767 228.349H800.964" stroke="#FFFAFA" stroke-opacity="0.16" stroke-width="1.46438" stroke-linecap="round" stroke-linejoin="round"/>
<path d="M806.821 228.349H809.018" stroke="#FFFAFA" stroke-opacity="0.16" stroke-width="1.46438" stroke-linecap="round" stroke-linejoin="round"/>
<path d="M811.947 225.42H818.536" stroke="#FFFAFA" stroke-opacity="0.16" stroke-width="1.46438" stroke-linecap="round" stroke-linejoin="round"/>
<path d="M811.947 228.349H818.536" stroke="#FFFAFA" stroke-opacity="0.16" stroke-width="1.46438" stroke-linecap="round" stroke-linejoin="round"/>
<path d="M803.16 231.277H818.536" stroke="#FFFAFA" stroke-opacity="0.16" stroke-width="1.46438" stroke-linecap="round" stroke-linejoin="round"/>
<path d="M803.16 234.206H818.536" stroke="#FFFAFA" stroke-opacity="0.16" stroke-width="1.46438" stroke-linecap="round" stroke-linejoin="round"/>
<path d="M800.232 228.349V221.027L803.893 226.884L807.554 221.027V228.349" stroke="#FFFAFA" stroke-opacity="0.16" stroke-width="1.46438" stroke-linecap="round" stroke-linejoin="round"/>
<g opacity="0.718936">
<path d="M414.528 228.415L408.2 241.62C408.025 241.985 408.179 242.422 408.544 242.597L421.75 248.926C422.114 249.1 422.552 248.946 422.726 248.582L429.055 235.376C429.229 235.011 429.075 234.574 428.711 234.399L415.505 228.071C415.14 227.896 414.703 228.05 414.528 228.415Z" stroke="#FFFAFA" stroke-opacity="0.16" stroke-width="1.46438" stroke-linecap="round" stroke-linejoin="round"/>
<path d="M416.99 238.525L422.273 241.057" stroke="#FFFAFA" stroke-opacity="0.16" stroke-width="1.46438" stroke-linecap="round" stroke-linejoin="round"/>
<path d="M415.725 241.167L421.007 243.698" stroke="#FFFAFA" stroke-opacity="0.16" stroke-width="1.46438" stroke-linecap="round" stroke-linejoin="round"/>
<path d="M419.301 239.633C418.689 239.339 418.217 238.814 417.992 238.173C417.766 237.532 417.804 236.827 418.098 236.214C418.392 235.601 418.917 235.13 419.558 234.905C420.199 234.679 420.903 234.717 421.516 235.011L424.488 236.435" stroke="#FFFAFA" stroke-opacity="0.16" stroke-width="1.46438" stroke-linecap="round" stroke-linejoin="round"/>
<path d="M414.074 240.376C414.336 239.829 414.105 239.173 413.558 238.911C413.011 238.649 412.355 238.88 412.093 239.427C411.831 239.974 412.062 240.629 412.609 240.892C413.156 241.154 413.812 240.923 414.074 240.376Z" fill="#FFFAFA" fill-opacity="0.16"/>
</g>
<g opacity="0.580479">
<path d="M1018.23 122.953C1016.62 122.358 1014.83 123.181 1014.23 124.794C1013.64 126.406 1014.46 128.195 1016.07 128.791C1017.69 129.387 1019.48 128.563 1020.07 126.951C1020.67 125.339 1019.84 123.549 1018.23 122.953Z" stroke="#FFFAFA" stroke-opacity="0.16" stroke-width="1.46438" stroke-linecap="round" stroke-linejoin="round"/>
<path d="M1018.99 129.869L1016.84 135.707L1019.75 136.786C1020.53 137.072 1021.39 137.039 1022.13 136.693C1022.88 136.348 1023.47 135.72 1023.75 134.945C1024.04 134.171 1024.01 133.315 1023.66 132.565C1023.32 131.816 1022.69 131.234 1021.91 130.948L1018.99 129.869Z" stroke="#FFFAFA" stroke-opacity="0.16" stroke-width="1.46438" stroke-linecap="round" stroke-linejoin="round"/>
<path d="M1021.15 124.032L1018.99 129.87L1021.91 130.948C1022.69 131.234 1023.54 131.201 1024.29 130.856C1025.04 130.511 1025.62 129.882 1025.91 129.108C1026.2 128.334 1026.16 127.478 1025.82 126.728C1025.47 125.978 1024.84 125.397 1024.07 125.11L1021.15 124.032Z" stroke="#FFFAFA" stroke-opacity="0.16" stroke-width="1.46438" stroke-linecap="round" stroke-linejoin="round"/>
<path d="M1018.99 129.869L1016.84 135.707L1013.92 134.628C1013.14 134.342 1012.51 133.76 1012.17 133.011C1011.82 132.261 1011.79 131.405 1012.08 130.631C1012.36 129.857 1012.94 129.228 1013.69 128.883C1014.44 128.538 1015.3 128.505 1016.07 128.791L1018.99 129.869Z" stroke="#FFFAFA" stroke-opacity="0.16" stroke-width="1.46438" stroke-linecap="round" stroke-linejoin="round"/>
<path d="M1021.15 124.032L1022.23 121.113C1022.44 120.535 1022.82 120.034 1023.32 119.673C1023.82 119.311 1024.41 119.106 1025.03 119.082C1025.64 119.058 1026.25 119.217 1026.78 119.539C1027.3 119.861 1027.72 120.331 1027.97 120.89C1028.23 121.449 1028.32 122.072 1028.22 122.68C1028.12 123.288 1027.85 123.853 1027.43 124.305C1027.01 124.757 1026.47 125.074 1025.87 125.218C1025.27 125.361 1024.65 125.324 1024.07 125.11L1021.15 124.032Z" stroke="#FFFAFA" stroke-opacity="0.16" stroke-width="1.46438" stroke-linecap="round" stroke-linejoin="round"/>
</g>
<g opacity="0.578432">
<path d="M1048.78 157.666L1052.64 157.427C1052.81 157.416 1052.97 157.346 1053.1 157.228L1057.06 153.484L1057.29 157.138L1059.48 157.002C1059.68 156.99 1059.87 157.056 1060.01 157.184C1060.16 157.313 1060.25 157.494 1060.26 157.688L1061.07 170.842C1061.09 171.036 1061.02 171.226 1060.89 171.372C1060.76 171.518 1060.58 171.606 1060.39 171.618L1045.77 172.525C1045.58 172.537 1045.39 172.471 1045.24 172.343C1045.1 172.214 1045.01 172.033 1045 171.839L1044.38 161.951C1044.38 161.844 1044.39 161.736 1044.43 161.636C1044.47 161.537 1044.53 161.447 1044.61 161.373L1048.33 157.864C1048.45 157.747 1048.61 157.677 1048.78 157.666Z" stroke="#FFFAFA" stroke-opacity="0.16" stroke-width="1.46438" stroke-linecap="round" stroke-linejoin="round"/>
<path d="M1049.16 167.914L1048.88 163.529" stroke="#FFFAFA" stroke-opacity="0.16" stroke-width="1.46438" stroke-linecap="round" stroke-linejoin="round"/>
<path d="M1053.54 167.642L1053.27 163.257" stroke="#FFFAFA" stroke-opacity="0.16" stroke-width="1.46438" stroke-linecap="round" stroke-linejoin="round"/>
</g>
<g opacity="0.957396">
<path d="M481.335 16.9844L493.79 11.7582" stroke="#FFFAFA" stroke-opacity="0.16" stroke-width="1.46438" stroke-linecap="round" stroke-linejoin="round"/>
<path d="M481.735 10.9571L481.335 16.9844L493.389 17.7854L493.79 11.7582L481.735 10.9571Z" stroke="#FFFAFA" stroke-opacity="0.16" stroke-width="1.46438" stroke-linecap="round" stroke-linejoin="round"/>
<path d="M493.79 11.7579L499.817 12.1584C499.711 13.7569 498.974 15.2478 497.769 16.303C496.563 17.3582 494.988 17.8914 493.389 17.7852" stroke="#FFFAFA" stroke-opacity="0.16" stroke-width="1.46438" stroke-linecap="round" stroke-linejoin="round"/>
<path d="M493.79 11.7581L493.839 11.0275C493.945 9.42898 493.412 7.85373 492.357 6.64828C491.301 5.44283 489.81 4.70594 488.212 4.59972C486.613 4.49349 485.038 5.02662 483.833 6.08184C482.627 7.13706 481.89 8.62792 481.784 10.2265L481.736 10.957" stroke="#FFFAFA" stroke-opacity="0.16" stroke-width="1.46438" stroke-linecap="round" stroke-linejoin="round"/>
</g>
<g opacity="0.538795">
<path d="M704.153 242.35L694.381 233.025" stroke="#FFFAFA" stroke-opacity="0.16" stroke-width="1.46438" stroke-linecap="round" stroke-linejoin="round"/>
<path d="M698.468 244.393L704.153 242.35L700.065 230.981L694.381 233.025L698.468 244.393Z" stroke="#FFFAFA" stroke-opacity="0.16" stroke-width="1.46438" stroke-linecap="round" stroke-linejoin="round"/>
<path d="M694.381 233.025L692.337 227.34C693.844 226.798 695.506 226.877 696.955 227.56C698.404 228.243 699.523 229.473 700.065 230.981" stroke="#FFFAFA" stroke-opacity="0.16" stroke-width="1.46438" stroke-linecap="round" stroke-linejoin="round"/>
<path d="M694.381 233.025L693.692 233.273C692.184 233.815 690.954 234.933 690.271 236.383C689.588 237.832 689.509 239.493 690.051 241.001C690.593 242.508 691.712 243.739 693.161 244.422C694.611 245.104 696.272 245.183 697.779 244.641L698.468 244.394" stroke="#FFFAFA" stroke-opacity="0.16" stroke-width="1.46438" stroke-linecap="round" stroke-linejoin="round"/>
</g>
<g opacity="0.333361">
<path d="M820.13 276.304L818.014 265.548C817.989 265.424 817.933 265.308 817.85 265.212C817.767 265.116 817.661 265.043 817.542 265C817.422 264.958 817.294 264.947 817.169 264.969C817.044 264.991 816.927 265.045 816.829 265.125L804.949 274.943C804.847 275.028 804.769 275.139 804.725 275.265C804.681 275.391 804.672 275.526 804.699 275.657C804.726 275.787 804.788 275.908 804.879 276.005C804.97 276.103 805.085 276.174 805.213 276.211L822.652 281.236C822.804 281.279 822.966 281.273 823.114 281.217C823.262 281.161 823.387 281.058 823.472 280.925C823.557 280.791 823.597 280.634 823.585 280.476C823.573 280.319 823.51 280.169 823.406 280.05L820.13 276.304Z" stroke="#FFFAFA" stroke-opacity="0.16" stroke-width="1.46438" stroke-linecap="round" stroke-linejoin="round"/>
<path d="M820.13 276.304L804.77 275.853" stroke="#FFFAFA" stroke-opacity="0.16" stroke-width="1.46438" stroke-linecap="round" stroke-linejoin="round"/>
<path d="M819.073 270.932L823.084 270.406C823.227 270.387 823.373 270.411 823.503 270.475C823.633 270.539 823.741 270.64 823.813 270.766C823.885 270.891 823.919 271.035 823.909 271.18C823.9 271.324 823.848 271.463 823.76 271.578L820.13 276.304" stroke="#FFFAFA" stroke-opacity="0.16" stroke-width="1.46438" stroke-linecap="round" stroke-linejoin="round"/>
</g>
<g opacity="0.920849">
<path d="M106.43 305.001L117.369 304.279C117.495 304.27 117.618 304.229 117.724 304.16C117.83 304.09 117.915 303.994 117.973 303.881C118.031 303.768 118.058 303.642 118.052 303.515C118.046 303.388 118.008 303.265 117.94 303.158L109.723 290.12C109.652 290.007 109.552 289.916 109.433 289.856C109.314 289.796 109.18 289.77 109.048 289.78C108.915 289.79 108.787 289.837 108.679 289.914C108.57 289.991 108.485 290.097 108.432 290.219L101.217 306.871C101.154 307.016 101.14 307.178 101.177 307.332C101.213 307.486 101.299 307.624 101.42 307.725C101.542 307.826 101.693 307.885 101.851 307.894C102.009 307.902 102.165 307.859 102.297 307.771L106.43 305.001Z" stroke="#FFFAFA" stroke-opacity="0.16" stroke-width="1.46438" stroke-linecap="round" stroke-linejoin="round"/>
<path d="M106.43 305.002L108.843 289.825" stroke="#FFFAFA" stroke-opacity="0.16" stroke-width="1.46438" stroke-linecap="round" stroke-linejoin="round"/>
<path d="M111.893 304.641L111.902 308.685C111.902 308.83 111.86 308.972 111.78 309.092C111.699 309.213 111.585 309.307 111.452 309.363C111.318 309.419 111.171 309.433 111.029 309.405C110.887 309.378 110.756 309.308 110.653 309.206L106.43 305.001" stroke="#FFFAFA" stroke-opacity="0.16" stroke-width="1.46438" stroke-linecap="round" stroke-linejoin="round"/>
</g>
<g opacity="0.793763">
<path d="M302.251 161.763L313.212 161.622C313.339 161.621 313.463 161.586 313.572 161.522C313.682 161.458 313.773 161.367 313.836 161.257C313.9 161.147 313.934 161.023 313.935 160.896C313.936 160.769 313.904 160.644 313.842 160.533L306.329 147.077C306.264 146.961 306.168 146.865 306.052 146.798C305.937 146.732 305.805 146.699 305.672 146.702C305.539 146.705 305.409 146.745 305.296 146.816C305.184 146.888 305.093 146.989 305.034 147.108L296.945 163.354C296.875 163.495 296.852 163.656 296.881 163.812C296.909 163.967 296.987 164.109 297.103 164.217C297.219 164.325 297.367 164.392 297.524 164.408C297.681 164.425 297.84 164.39 297.975 164.309L302.251 161.763Z" stroke="#FFFAFA" stroke-opacity="0.16" stroke-width="1.46438" stroke-linecap="round" stroke-linejoin="round"/>
<path d="M302.251 161.763L305.466 146.737" stroke="#FFFAFA" stroke-opacity="0.16" stroke-width="1.46438" stroke-linecap="round" stroke-linejoin="round"/>
<path d="M307.725 161.693L307.519 165.732C307.512 165.877 307.462 166.016 307.375 166.132C307.289 166.249 307.17 166.336 307.033 166.385C306.897 166.434 306.749 166.44 306.609 166.405C306.468 166.37 306.342 166.293 306.245 166.186L302.25 161.763" stroke="#FFFAFA" stroke-opacity="0.16" stroke-width="1.46438" stroke-linecap="round" stroke-linejoin="round"/>
</g>
<g opacity="0.0189615">
<path d="M891.47 259.554C891.342 259.556 891.216 259.591 891.106 259.656C890.996 259.721 890.905 259.814 890.842 259.926C890.779 260.037 890.746 260.163 890.746 260.291C890.747 260.419 890.781 260.544 890.845 260.655L899.57 276.055C899.63 276.168 899.72 276.263 899.83 276.33C899.94 276.397 900.066 276.432 900.195 276.433C900.324 276.433 900.45 276.399 900.56 276.333C900.671 276.268 900.762 276.173 900.823 276.06L909.683 260.738C909.748 260.628 909.783 260.502 909.785 260.374C909.787 260.246 909.755 260.12 909.693 260.008C909.631 259.897 909.54 259.803 909.431 259.737C909.321 259.67 909.196 259.634 909.068 259.631L891.47 259.554Z" stroke="#FFFAFA" stroke-opacity="0.16" stroke-width="1.46438" stroke-linecap="round" stroke-linejoin="round"/>
<path d="M909.582 259.855L897.293 272.036" stroke="#FFFAFA" stroke-opacity="0.16" stroke-width="1.46438" stroke-linecap="round" stroke-linejoin="round"/>
<path d="M890.954 259.773L903.135 272.061" stroke="#FFFAFA" stroke-opacity="0.16" stroke-width="1.46438" stroke-linecap="round" stroke-linejoin="round"/>
</g>
<g opacity="0.226067">
<path d="M730.392 180.723C730.519 180.716 730.643 180.677 730.751 180.607C730.859 180.538 730.947 180.442 731.006 180.329C731.065 180.215 731.093 180.088 731.088 179.96C731.083 179.833 731.045 179.708 730.977 179.6L721.713 164.519C721.648 164.407 721.555 164.315 721.443 164.253C721.331 164.19 721.203 164.159 721.075 164.163C720.946 164.167 720.821 164.206 720.713 164.275C720.605 164.345 720.517 164.442 720.46 164.557L712.148 180.183C712.086 180.296 712.056 180.422 712.059 180.55C712.061 180.678 712.098 180.803 712.164 180.913C712.23 181.022 712.323 181.113 712.435 181.175C712.547 181.237 712.673 181.269 712.801 181.268L730.392 180.723Z" stroke="#FFFAFA" stroke-opacity="0.16" stroke-width="1.46438" stroke-linecap="round" stroke-linejoin="round"/>
<path d="M712.28 181.062L724.13 168.454" stroke="#FFFAFA" stroke-opacity="0.16" stroke-width="1.46438" stroke-linecap="round" stroke-linejoin="round"/>
<path d="M730.899 180.485L718.291 168.635" stroke="#FFFAFA" stroke-opacity="0.16" stroke-width="1.46438" stroke-linecap="round" stroke-linejoin="round"/>
</g>
<g opacity="0.332825">
<path d="M510.676 305.783C510.685 307.805 512.331 309.436 514.353 309.427C516.375 309.418 518.007 307.772 517.998 305.75C517.989 303.728 516.343 302.097 514.321 302.106C512.299 302.115 510.667 303.761 510.676 305.783Z" stroke="#FFFAFA" stroke-opacity="0.16" stroke-width="1.46438" stroke-miterlimit="10"/>
<path d="M522.775 309.756L522.739 301.702C522.728 299.276 520.753 297.318 518.327 297.329L510.273 297.364C507.846 297.375 505.888 299.35 505.899 301.777L505.935 309.831C505.945 312.257 507.921 314.215 510.347 314.204L518.401 314.169C520.827 314.158 522.786 312.182 522.775 309.756Z" stroke="#FFFAFA" stroke-opacity="0.16" stroke-width="1.46438" stroke-linecap="round" stroke-linejoin="round"/>
<path d="M518.019 310.509C518.022 311.116 518.516 311.605 519.122 311.603C519.729 311.6 520.218 311.106 520.216 310.5C520.213 309.893 519.719 309.404 519.112 309.406C518.506 309.409 518.016 309.903 518.019 310.509Z" fill="#FFFAFA" fill-opacity="0.16"/>
</g>
<g opacity="0.683911">
<path d="M420.532 201.181C418.548 201.572 417.257 203.497 417.648 205.481C418.039 207.465 419.965 208.756 421.948 208.365C423.932 207.973 425.223 206.048 424.832 204.064C424.441 202.081 422.515 200.79 420.532 201.181Z" stroke="#FFFAFA" stroke-opacity="0.16" stroke-width="1.46438" stroke-miterlimit="10"/>
<path d="M418.918 213.813L426.82 212.255C429.2 211.785 430.75 209.475 430.28 207.095L428.722 199.193C428.253 196.812 425.942 195.263 423.562 195.733L415.66 197.291C413.28 197.76 411.73 200.07 412.2 202.451L413.758 210.353C414.227 212.733 416.538 214.282 418.918 213.813Z" stroke="#FFFAFA" stroke-opacity="0.16" stroke-width="1.46438" stroke-linecap="round" stroke-linejoin="round"/>
<path d="M417.279 209.285C416.684 209.403 416.297 209.98 416.414 210.575C416.531 211.171 417.109 211.558 417.704 211.441C418.299 211.323 418.686 210.746 418.569 210.15C418.452 209.555 417.874 209.168 417.279 209.285Z" fill="#FFFAFA" fill-opacity="0.16"/>
</g>
<g opacity="0.0206015">
<path d="M699.124 -2.33417C697.987 -4.00592 695.71 -4.43925 694.038 -3.30203C692.366 -2.16481 691.933 0.112307 693.07 1.78406C694.207 3.45581 696.485 3.88914 698.156 2.75192C699.828 1.6147 700.261 -0.662415 699.124 -2.33417Z" stroke="#FFFAFA" stroke-opacity="0.16" stroke-width="1.46438" stroke-miterlimit="10"/>
<path d="M686.87 1.13113L691.4 7.79048C692.765 9.79658 695.497 10.3166 697.503 8.95192L704.163 4.42187C706.169 3.0572 706.689 0.324661 705.324 -1.68144L700.794 -8.34079C699.43 -10.3469 696.697 -10.8669 694.691 -9.50222L688.032 -4.97217C686.025 -3.60751 685.505 -0.874969 686.87 1.13113Z" stroke="#FFFAFA" stroke-opacity="0.16" stroke-width="1.46438" stroke-linecap="round" stroke-linejoin="round"/>
</g>
<g opacity="0.691073">
<path d="M503.498 260.531C503.735 259.989 504.13 259.531 504.633 259.218C505.135 258.905 505.721 258.751 506.312 258.777" stroke="#FFFAFA" stroke-opacity="0.16" stroke-width="1.46438" stroke-linecap="round" stroke-linejoin="round"/>
<path d="M510.32 272.782C509.046 275.539 506.868 277.491 505.121 277.413L498.538 277.122C495.977 277.009 492.88 272.474 493.09 267.719C493.137 266.66 493.49 265.638 494.105 264.774C494.721 263.911 495.573 263.245 496.559 262.855C497.545 262.465 498.622 262.37 499.661 262.579C500.701 262.788 501.657 263.294 502.415 264.035L502.415 264.035C502.996 263.56 503.668 263.209 504.39 263.004C505.112 262.799 505.868 262.744 506.612 262.842C507.356 262.941 508.072 263.19 508.715 263.576C509.359 263.962 509.917 264.476 510.354 265.086L510.354 265.086C509.664 265.462 509.088 266.017 508.686 266.692C508.283 267.367 508.069 268.138 508.065 268.923C508.062 269.709 508.269 270.482 508.665 271.16C509.062 271.839 509.633 272.399 510.319 272.781L510.32 272.782Z" stroke="#FFFAFA" stroke-opacity="0.16" stroke-width="1.46438" stroke-linecap="round" stroke-linejoin="round"/>
</g>
<g opacity="0.862567">
<path d="M787.439 101.893C788.011 102.043 788.525 102.364 788.912 102.812C789.299 103.26 789.541 103.815 789.606 104.403" stroke="#FFFAFA" stroke-opacity="0.16" stroke-width="1.46438" stroke-linecap="round" stroke-linejoin="round"/>
<path d="M776.387 110.523C773.466 109.69 771.202 107.839 771.009 106.101L770.281 99.5514C769.999 97.0044 774.001 93.2446 778.731 92.7191C779.785 92.6021 780.85 92.7925 781.797 93.2674C782.745 93.7423 783.535 94.4814 784.072 95.3954C784.609 96.3094 784.87 97.3594 784.824 98.4184C784.777 99.4775 784.425 100.5 783.81 101.364L783.81 101.364C784.369 101.864 784.819 102.474 785.133 103.156C785.447 103.837 785.618 104.576 785.636 105.326C785.653 106.077 785.517 106.823 785.235 107.518C784.953 108.214 784.531 108.844 783.996 109.37L783.996 109.37C783.518 108.747 782.881 108.263 782.152 107.969C781.423 107.675 780.628 107.583 779.851 107.7C779.074 107.818 778.343 108.142 777.734 108.638C777.125 109.135 776.66 109.786 776.387 110.523L776.387 110.523Z" stroke="#FFFAFA" stroke-opacity="0.16" stroke-width="1.46438" stroke-linecap="round" stroke-linejoin="round"/>
</g>
<g opacity="0.507603">
<path d="M585.986 203.898C586.062 203.311 586.314 202.761 586.709 202.32C587.104 201.879 587.624 201.568 588.199 201.428" stroke="#FFFAFA" stroke-opacity="0.16" stroke-width="1.46438" stroke-linecap="round" stroke-linejoin="round"/>
<path d="M595.96 213.755C595.507 216.759 593.961 219.241 592.262 219.655L585.86 221.214C583.37 221.821 579.129 218.332 578.002 213.708C577.752 212.678 577.804 211.598 578.154 210.597C578.504 209.596 579.135 208.718 579.973 208.069C580.811 207.419 581.819 207.026 582.875 206.937C583.932 206.847 584.991 207.066 585.926 207.565L585.926 207.565C586.351 206.947 586.898 206.422 587.534 206.023C588.17 205.625 588.881 205.36 589.623 205.247C590.364 205.134 591.122 205.174 591.847 205.364C592.573 205.555 593.252 205.893 593.843 206.356L593.843 206.356C593.286 206.91 592.887 207.604 592.689 208.364C592.491 209.125 592.501 209.925 592.717 210.68C592.933 211.436 593.348 212.12 593.918 212.66C594.489 213.201 595.194 213.579 595.96 213.755L595.96 213.755Z" stroke="#FFFAFA" stroke-opacity="0.16" stroke-width="1.46438" stroke-linecap="round" stroke-linejoin="round"/>
</g>
<g opacity="0.173321">
<path d="M998.305 297.704C998.862 297.905 999.346 298.269 999.691 298.75C1000.04 299.23 1000.23 299.804 1000.24 300.396" stroke="#FFFAFA" stroke-opacity="0.16" stroke-width="1.46438" stroke-linecap="round" stroke-linejoin="round"/>
<path d="M986.534 305.324C983.698 304.235 981.607 302.192 981.568 300.443L981.422 293.855C981.365 291.293 985.684 287.902 990.443 287.797C991.502 287.773 992.546 288.057 993.448 288.614C994.35 289.171 995.072 289.977 995.526 290.935C995.98 291.893 996.147 292.962 996.007 294.012C995.867 295.063 995.426 296.051 994.737 296.857L994.737 296.856C995.25 297.405 995.644 298.052 995.897 298.759C996.15 299.465 996.255 300.216 996.206 300.965C996.157 301.714 995.955 302.445 995.613 303.113C995.27 303.781 994.795 304.371 994.215 304.848L994.215 304.848C993.794 304.185 993.202 303.646 992.502 303.289C991.802 302.933 991.019 302.77 990.234 302.818C989.45 302.867 988.693 303.125 988.042 303.566C987.391 304.006 986.87 304.613 986.534 305.324L986.534 305.324Z" stroke="#FFFAFA" stroke-opacity="0.16" stroke-width="1.46438" stroke-linecap="round" stroke-linejoin="round"/>
</g>
<g opacity="0.722483">
<path d="M1105.97 163.592C1110.28 165.824 1115.59 164.14 1117.82 159.831C1120.05 155.522 1118.36 150.22 1114.06 147.988C1109.75 145.757 1104.44 147.441 1102.21 151.75C1099.98 156.059 1101.67 161.361 1105.97 163.592Z" stroke="#FFFAFA" stroke-opacity="0.16" stroke-width="1.46438" stroke-miterlimit="10"/>
<path d="M1102.13 159.672C1104.28 158.354 1106.74 157.614 1109.26 157.524C1111.78 157.434 1114.28 157.997 1116.52 159.158C1116.96 159.385 1117.38 159.63 1117.78 159.895" stroke="#FFFAFA" stroke-opacity="0.16" stroke-width="1.46438" stroke-linecap="round" stroke-linejoin="round"/>
<path d="M1118.05 152.229C1116.05 153.095 1113.89 153.506 1111.72 153.431C1109.55 153.356 1107.42 152.798 1105.49 151.796C1104.67 151.371 1103.88 150.869 1103.16 150.297" stroke="#FFFAFA" stroke-opacity="0.16" stroke-width="1.46438" stroke-linecap="round" stroke-linejoin="round"/>
<path d="M1110.23 147.004C1111.59 149.164 1112.36 151.643 1112.47 154.193C1112.58 156.744 1112.02 159.279 1110.84 161.545C1110.29 162.608 1109.61 163.599 1108.82 164.498" stroke="#FFFAFA" stroke-opacity="0.16" stroke-width="1.46438" stroke-linecap="round" stroke-linejoin="round"/>
</g>
<g opacity="0.420472">
<path d="M688.312 206.619C684.172 209.15 682.867 214.558 685.398 218.698C687.929 222.838 693.337 224.142 697.477 221.612C701.617 219.081 702.922 213.673 700.391 209.532C697.86 205.392 692.452 204.088 688.312 206.619Z" stroke="#FFFAFA" stroke-opacity="0.16" stroke-width="1.46438" stroke-miterlimit="10"/>
<path d="M693.655 205.361C693.669 207.883 693.031 210.366 691.804 212.569C690.576 214.772 688.8 216.62 686.647 217.935C686.226 218.192 685.797 218.426 685.361 218.636" stroke="#FFFAFA" stroke-opacity="0.16" stroke-width="1.46438" stroke-linecap="round" stroke-linejoin="round"/>
<path d="M691.783 222.83C692.074 220.676 692.842 218.613 694.031 216.793C695.22 214.973 696.8 213.442 698.656 212.31C699.445 211.826 700.279 211.418 701.145 211.092" stroke="#FFFAFA" stroke-opacity="0.16" stroke-width="1.46438" stroke-linecap="round" stroke-linejoin="round"/>
<path d="M700.3 218.847C697.747 218.893 695.227 218.271 692.989 217.042C690.752 215.813 688.874 214.02 687.544 211.841C686.919 210.821 686.421 209.728 686.062 208.587" stroke="#FFFAFA" stroke-opacity="0.16" stroke-width="1.46438" stroke-linecap="round" stroke-linejoin="round"/>
</g>
<g opacity="0.458641">
<path d="M1090.27 240.188C1088.37 235.723 1083.21 233.646 1078.74 235.548C1074.28 237.449 1072.2 242.61 1074.1 247.074C1076.01 251.539 1081.17 253.616 1085.63 251.715C1090.09 249.813 1092.17 244.652 1090.27 240.188Z" stroke="#FFFAFA" stroke-opacity="0.16" stroke-width="1.46438" stroke-miterlimit="10"/>
<path d="M1090.74 245.657C1088.24 245.304 1085.88 244.312 1083.88 242.777C1081.87 241.241 1080.3 239.215 1079.32 236.894C1079.12 236.44 1078.95 235.982 1078.81 235.52" stroke="#FFFAFA" stroke-opacity="0.16" stroke-width="1.46438" stroke-linecap="round" stroke-linejoin="round"/>
<path d="M1073.73 241.263C1075.82 241.865 1077.74 242.924 1079.37 244.365C1081 245.807 1082.28 247.593 1083.13 249.593C1083.5 250.445 1083.78 251.329 1083.98 252.234" stroke="#FFFAFA" stroke-opacity="0.16" stroke-width="1.46438" stroke-linecap="round" stroke-linejoin="round"/>
<path d="M1076.43 250.27C1076.75 247.737 1077.74 245.334 1079.28 243.299C1080.82 241.264 1082.87 239.668 1085.22 238.668C1086.32 238.199 1087.47 237.865 1088.65 237.676" stroke="#FFFAFA" stroke-opacity="0.16" stroke-width="1.46438" stroke-linecap="round" stroke-linejoin="round"/>
</g>
<g opacity="0.867918">
<path d="M828.918 98.9072C829.453 103.73 833.798 107.205 838.62 106.67C843.443 106.134 846.919 101.79 846.383 96.9669C845.847 92.1441 841.503 88.6687 836.68 89.2045C831.857 89.7403 828.382 94.0844 828.918 98.9072Z" stroke="#FFFAFA" stroke-opacity="0.16" stroke-width="1.46438" stroke-miterlimit="10"/>
<path d="M830.045 93.5348C832.335 94.5917 834.313 96.2224 835.787 98.2687C837.261 100.315 838.182 102.708 838.459 105.214C838.513 105.705 838.543 106.193 838.549 106.677" stroke="#FFFAFA" stroke-opacity="0.16" stroke-width="1.46438" stroke-linecap="round" stroke-linejoin="round"/>
<path d="M845.071 102.641C843.243 101.463 841.701 99.893 840.558 98.0443C839.414 96.1956 838.697 94.1151 838.459 91.9542C838.356 91.0339 838.341 90.106 838.412 89.1828" stroke="#FFFAFA" stroke-opacity="0.16" stroke-width="1.46438" stroke-linecap="round" stroke-linejoin="round"/>
<path d="M845.076 93.2378C844.035 95.569 842.403 97.5873 840.341 99.0924C838.279 100.598 835.859 101.537 833.321 101.818C832.132 101.951 830.932 101.938 829.746 101.779" stroke="#FFFAFA" stroke-opacity="0.16" stroke-width="1.46438" stroke-linecap="round" stroke-linejoin="round"/>
</g>
<g opacity="0.9357">
<path d="M1151.88 65.1754C1153.18 60.4986 1150.43 55.6584 1145.76 54.3645C1141.08 53.0706 1136.24 55.813 1134.95 60.4898C1133.65 65.1667 1136.39 70.0069 1141.07 71.3008C1145.75 72.5947 1150.59 69.8523 1151.88 65.1754Z" stroke="#FFFAFA" stroke-opacity="0.16" stroke-width="1.46438" stroke-miterlimit="10"/>
<path d="M1148.84 69.7447C1147.11 67.9128 1145.88 65.6642 1145.27 63.2167C1144.66 60.7693 1144.69 58.2061 1145.37 55.7758C1145.5 55.2997 1145.65 54.836 1145.83 54.3845" stroke="#FFFAFA" stroke-opacity="0.16" stroke-width="1.46438" stroke-linecap="round" stroke-linejoin="round"/>
<path d="M1138.27 55.7093C1139.53 57.4812 1140.38 59.5118 1140.75 61.6531C1141.13 63.7943 1141.02 65.9924 1140.44 68.087C1140.19 68.9796 1139.86 69.8469 1139.46 70.6774" stroke="#FFFAFA" stroke-opacity="0.16" stroke-width="1.46438" stroke-linecap="round" stroke-linejoin="round"/>
<path d="M1134.77 64.4375C1136.61 62.6598 1138.87 61.3922 1141.35 60.7607C1143.82 60.1292 1146.42 60.1557 1148.88 60.8375C1150.03 61.1557 1151.14 61.6136 1152.18 62.2011" stroke="#FFFAFA" stroke-opacity="0.16" stroke-width="1.46438" stroke-linecap="round" stroke-linejoin="round"/>
</g>
<g opacity="0.165149">
<path d="M1127.64 75.8471C1123.98 72.6592 1118.43 73.0406 1115.24 76.699C1112.05 80.3574 1112.43 85.9075 1116.09 89.0954C1119.75 92.2833 1125.3 91.9019 1128.49 88.2435C1131.68 84.5851 1131.29 79.035 1127.64 75.8471Z" stroke="#FFFAFA" stroke-opacity="0.16" stroke-width="1.46438" stroke-miterlimit="10"/>
<path d="M1130.44 80.5655C1128.04 81.3371 1125.48 81.4751 1123.01 80.9663C1120.54 80.4574 1118.24 79.3189 1116.34 77.6611C1115.97 77.3366 1115.62 76.998 1115.29 76.6452" stroke="#FFFAFA" stroke-opacity="0.16" stroke-width="1.46438" stroke-linecap="round" stroke-linejoin="round"/>
<path d="M1113.22 84.0306C1115.36 83.6606 1117.56 83.7731 1119.65 84.36C1121.74 84.9469 1123.68 85.9934 1125.32 87.4231C1126.02 88.0311 1126.66 88.7037 1127.23 89.4318" stroke="#FFFAFA" stroke-opacity="0.16" stroke-width="1.46438" stroke-linecap="round" stroke-linejoin="round"/>
<path d="M1119.58 90.957C1118.77 88.5363 1118.6 85.9455 1119.1 83.4419C1119.6 80.9382 1120.75 78.6087 1122.42 76.6846C1123.21 75.7822 1124.1 74.9792 1125.08 74.2934" stroke="#FFFAFA" stroke-opacity="0.16" stroke-width="1.46438" stroke-linecap="round" stroke-linejoin="round"/>
</g>
<g opacity="0.925668">
<path d="M167.829 154.544C163.804 157.256 162.74 162.716 165.452 166.74C168.163 170.765 173.624 171.829 177.648 169.117C181.672 166.406 182.736 160.945 180.025 156.921C177.313 152.897 171.853 151.833 167.829 154.544Z" stroke="#FFFAFA" stroke-opacity="0.16" stroke-width="1.46438" stroke-miterlimit="10"/>
<path d="M173.111 153.052C173.237 155.571 172.709 158.079 171.58 160.334C170.451 162.589 168.758 164.514 166.666 165.923C166.256 166.199 165.838 166.451 165.412 166.68" stroke="#FFFAFA" stroke-opacity="0.16" stroke-width="1.46438" stroke-linecap="round" stroke-linejoin="round"/>
<path d="M172.013 170.587C172.209 168.421 172.885 166.327 173.992 164.456C175.099 162.586 176.61 160.986 178.414 159.773C179.182 159.255 179.997 158.811 180.848 158.446" stroke="#FFFAFA" stroke-opacity="0.16" stroke-width="1.46438" stroke-linecap="round" stroke-linejoin="round"/>
<path d="M180.346 166.23C177.798 166.389 175.252 165.879 172.962 164.75C170.672 163.621 168.718 161.913 167.292 159.795C166.623 158.804 166.077 157.734 165.668 156.61" stroke="#FFFAFA" stroke-opacity="0.16" stroke-width="1.46438" stroke-linecap="round" stroke-linejoin="round"/>
</g>
<g opacity="0.637703">
<path d="M425.46 41.4894C421.665 38.8001 418.175 35.7044 415.053 32.2575C414.513 31.656 414.419 30.5762 414.857 29.8897C416.853 26.7955 419.311 24.0248 422.145 21.6737C422.774 21.1569 423.858 21.1222 424.519 21.5862C428.314 24.2756 431.804 27.3712 434.926 30.8181C435.466 31.4195 435.561 32.4995 435.122 33.1859C433.126 36.2801 430.668 39.0508 427.834 41.4019C427.205 41.9188 426.121 41.9536 425.46 41.4894Z" stroke="#FFFAFA" stroke-opacity="0.16" stroke-width="1.46438" stroke-linecap="round" stroke-linejoin="round"/>
<path d="M427.18 33.4818L425.838 28.3755L421.951 32.7574L427.18 33.4818Z" stroke="#FFFAFA" stroke-opacity="0.16" stroke-width="1.46438" stroke-linecap="round" stroke-linejoin="round"/>
</g>
<g opacity="0.86281">
<path d="M1009.22 63.0816C1009.09 67.7308 1008.46 72.3518 1007.32 76.8626C1007.12 77.6453 1006.27 78.3235 1005.46 78.3402C1001.78 78.3971 998.11 77.8907 994.581 76.8384C993.802 76.6017 993.172 75.7199 993.19 74.912C993.321 70.2628 993.959 65.6418 995.092 61.1311C995.293 60.3486 996.139 59.67 996.953 59.6535C1000.64 59.5965 1004.3 60.103 1007.83 61.1553C1008.61 61.3918 1009.24 62.2736 1009.22 63.0816Z" stroke="#FFFAFA" stroke-opacity="0.16" stroke-width="1.46438" stroke-linecap="round" stroke-linejoin="round"/>
<path d="M1001.61 66.0955L998.105 70.0469L1003.91 70.8478L1001.61 66.0955Z" stroke="#FFFAFA" stroke-opacity="0.16" stroke-width="1.46438" stroke-linecap="round" stroke-linejoin="round"/>
</g>
<g opacity="0.763904">
<path d="M1077.16 191.336C1072.53 191.72 1067.87 191.596 1063.26 190.967C1062.46 190.854 1061.69 190.089 1061.58 189.281C1061.12 185.628 1061.22 181.926 1061.88 178.302C1062.02 177.502 1062.83 176.778 1063.64 176.707C1068.27 176.324 1072.93 176.447 1077.54 177.076C1078.34 177.19 1079.11 177.955 1079.22 178.762C1079.68 182.415 1079.58 186.118 1078.93 189.741C1078.78 190.542 1077.97 191.266 1077.16 191.336Z" stroke="#FFFAFA" stroke-opacity="0.16" stroke-width="1.46438" stroke-linecap="round" stroke-linejoin="round"/>
<path d="M1073.33 184.099L1069.01 181.055L1068.86 186.911L1073.33 184.099Z" stroke="#FFFAFA" stroke-opacity="0.16" stroke-width="1.46438" stroke-linecap="round" stroke-linejoin="round"/>
</g>
<g opacity="0.978269">
<path d="M964.621 238.876C967.702 242.36 970.393 246.17 972.648 250.238C973.036 250.947 972.882 252.019 972.299 252.588C969.649 255.145 966.624 257.282 963.328 258.925C962.598 259.285 961.535 259.071 960.997 258.469C957.915 254.985 955.224 251.175 952.97 247.107C952.582 246.398 952.735 245.325 953.319 244.756C955.968 242.199 958.993 240.062 962.289 238.419C963.019 238.06 964.082 238.273 964.621 238.876Z" stroke="#FFFAFA" stroke-opacity="0.16" stroke-width="1.46438" stroke-linecap="round" stroke-linejoin="round"/>
<path d="M961.119 246.28L961.261 251.558L966.046 248.178L961.119 246.28Z" stroke="#FFFAFA" stroke-opacity="0.16" stroke-width="1.46438" stroke-linecap="round" stroke-linejoin="round"/>
</g>
<g opacity="0.583469">
<path d="M406.068 3.57626C410.718 3.4805 415.364 3.89273 419.925 4.80561C420.716 4.96815 421.435 5.7797 421.491 6.59212C421.727 10.2669 421.4 13.9562 420.521 17.532C420.322 18.3218 419.472 18.9942 418.664 19.0149C414.014 19.1106 409.368 18.6984 404.807 17.7855C404.016 17.6229 403.297 16.8115 403.241 15.999C403.005 12.3242 403.332 8.63495 404.211 5.05912C404.409 4.2693 405.26 3.59682 406.068 3.57626Z" stroke="#FFFAFA" stroke-opacity="0.16" stroke-width="1.46438" stroke-linecap="round" stroke-linejoin="round"/>
<path d="M409.449 11.0368L413.566 14.3423L414.084 8.50769L409.449 11.0368Z" stroke="#FFFAFA" stroke-opacity="0.16" stroke-width="1.46438" stroke-linecap="round" stroke-linejoin="round"/>
</g>
<g opacity="0.109705">
<path d="M1.61065 161.903C-0.0719365 157.567 -1.27608 153.06 -1.98036 148.463C-2.09877 147.664 -1.58239 146.711 -0.838379 146.38C2.5333 144.899 6.11154 143.943 9.77225 143.544C10.5823 143.46 11.5051 144.029 11.8012 144.781C13.4838 149.117 14.688 153.624 15.3923 158.221C15.5105 159.02 14.9944 159.973 14.2503 160.304C10.8786 161.785 7.30035 162.741 3.63963 163.139C2.82966 163.224 1.9067 162.655 1.61065 161.903Z" stroke="#FFFAFA" stroke-opacity="0.16" stroke-width="1.46438" stroke-linecap="round" stroke-linejoin="round"/>
<path d="M7.46222 156.172L9.15771 151.171L3.49871 152.683L7.46222 156.172Z" stroke="#FFFAFA" stroke-opacity="0.16" stroke-width="1.46438" stroke-linecap="round" stroke-linejoin="round"/>
</g>
<g opacity="0.917664">
<path d="M861.817 14.9813C865.953 17.1083 869.844 19.6805 873.422 22.6522C874.041 23.1716 874.287 24.2272 873.951 24.9686C872.411 28.3136 870.369 31.4034 867.895 34.1309C867.344 34.7314 866.277 34.9186 865.556 34.5526C861.42 32.4257 857.529 29.8535 853.951 26.8818C853.332 26.3624 853.085 25.3068 853.422 24.5653C854.962 21.2204 857.004 18.1305 859.478 15.403C860.028 14.8025 861.096 14.6152 861.817 14.9813Z" stroke="#FFFAFA" stroke-opacity="0.16" stroke-width="1.46438" stroke-linecap="round" stroke-linejoin="round"/>
<path d="M861.243 23.1524L863.293 28.0181L866.523 23.1315L861.243 23.1524Z" stroke="#FFFAFA" stroke-opacity="0.16" stroke-width="1.46438" stroke-linecap="round" stroke-linejoin="round"/>
</g>
<g opacity="0.326973">
<path d="M528.972 321.174C529.676 316.576 530.88 312.07 532.563 307.733C532.859 306.982 533.782 306.413 534.592 306.497C538.252 306.896 541.831 307.852 545.202 309.332C545.946 309.663 546.463 310.616 546.344 311.415C545.64 316.013 544.436 320.52 542.754 324.856C542.458 325.607 541.535 326.176 540.725 326.092C537.064 325.693 533.486 324.737 530.114 323.257C529.37 322.926 528.854 321.973 528.972 321.174Z" stroke="#FFFAFA" stroke-opacity="0.16" stroke-width="1.46438" stroke-linecap="round" stroke-linejoin="round"/>
<path d="M536.902 319.124L540.866 315.636L535.207 314.124L536.902 319.124Z" stroke="#FFFAFA" stroke-opacity="0.16" stroke-width="1.46438" stroke-linecap="round" stroke-linejoin="round"/>
</g>
<g opacity="0.0975108">
<path d="M888.155 -1.58163C890.066 2.65899 891.507 7.09551 892.454 11.6491C892.615 12.441 892.15 13.4201 891.424 13.7902C888.136 15.4474 884.614 16.5919 880.979 17.1842C880.175 17.3111 879.223 16.7924 878.887 16.0573C876.977 11.8167 875.536 7.38014 874.588 2.82659C874.428 2.03482 874.893 1.05545 875.618 0.685424C878.907 -0.971742 882.429 -2.11629 886.064 -2.70852C886.868 -2.83554 887.82 -2.31696 888.155 -1.58163Z" stroke="#FFFAFA" stroke-opacity="0.16" stroke-width="1.46438" stroke-linecap="round" stroke-linejoin="round"/>
<path d="M882.616 4.45248L881.188 9.53564L886.759 7.72554L882.616 4.45248Z" stroke="#FFFAFA" stroke-opacity="0.16" stroke-width="1.46438" stroke-linecap="round" stroke-linejoin="round"/>
</g>
<g opacity="0.84722">
<path d="M399.496 165.657C396.79 169.44 393.679 172.916 390.218 176.023C389.614 176.56 388.534 176.65 387.849 176.209C384.764 174.199 382.004 171.729 379.666 168.884C379.152 168.253 379.122 167.169 379.589 166.51C382.295 162.727 385.406 159.251 388.867 156.144C389.47 155.607 390.551 155.517 391.235 155.958C394.321 157.968 397.08 160.438 399.419 163.283C399.933 163.914 399.963 164.998 399.496 165.657Z" stroke="#FFFAFA" stroke-opacity="0.16" stroke-width="1.46438" stroke-linecap="round" stroke-linejoin="round"/>
<path d="M391.495 163.901L386.383 165.222L390.748 169.128L391.495 163.901Z" stroke="#FFFAFA" stroke-opacity="0.16" stroke-width="1.46438" stroke-linecap="round" stroke-linejoin="round"/>
</g>
<g opacity="0.786982">
<path d="M857.613 21.1389C857.773 22.85 859.289 24.1079 861 23.9484C862.712 23.7889 863.97 22.2725 863.81 20.5613C863.651 18.8501 862.134 17.5922 860.423 17.7517C858.712 17.9112 857.454 19.4277 857.613 21.1389Z" stroke="#FFFAFA" stroke-opacity="0.16" stroke-width="1.46438" stroke-linecap="round" stroke-linejoin="round"/>
<path d="M863.521 17.4628L869.718 16.8852L869.429 13.7869C869.352 12.9651 868.952 12.2075 868.317 11.6806C867.682 11.1537 866.864 10.9007 866.042 10.9773C865.22 11.0539 864.462 11.4538 863.935 12.089C863.409 12.7242 863.156 13.5427 863.232 14.3644L863.521 17.4628Z" stroke="#FFFAFA" stroke-opacity="0.16" stroke-width="1.46438" stroke-linecap="round" stroke-linejoin="round"/>
<path d="M857.325 18.0404L863.521 17.4629L863.232 14.3645C863.156 13.5427 862.756 12.7851 862.121 12.2582C861.485 11.7313 860.667 11.4783 859.845 11.5549C859.023 11.6315 858.266 12.0314 857.739 12.6666C857.212 13.3018 856.959 14.1203 857.036 14.9421L857.325 18.0404Z" stroke="#FFFAFA" stroke-opacity="0.16" stroke-width="1.46438" stroke-linecap="round" stroke-linejoin="round"/>
<path d="M863.521 17.4628L869.718 16.8853L870.007 19.9836C870.083 20.8054 869.83 21.6239 869.303 22.2591C868.776 22.8943 868.019 23.2942 867.197 23.3708C866.375 23.4474 865.557 23.1944 864.922 22.6675C864.286 22.1406 863.886 21.383 863.81 20.5612L863.521 17.4628Z" stroke="#FFFAFA" stroke-opacity="0.16" stroke-width="1.46438" stroke-linecap="round" stroke-linejoin="round"/>
<path d="M857.324 18.0405L854.226 18.3293C853.613 18.3864 852.997 18.2606 852.456 17.9676C851.915 17.6746 851.472 17.2278 851.185 16.6835C850.898 16.1392 850.778 15.5219 850.842 14.9097C850.906 14.2976 851.149 13.718 851.542 13.2443C851.935 12.7706 852.46 12.424 853.049 12.2484C853.639 12.0729 854.268 12.0761 854.856 12.2579C855.444 12.4396 855.965 12.7916 856.353 13.2694C856.741 13.7472 856.978 14.3293 857.036 14.9421L857.324 18.0405Z" stroke="#FFFAFA" stroke-opacity="0.16" stroke-width="1.46438" stroke-linecap="round" stroke-linejoin="round"/>
</g>
<g opacity="0.520737">
<path d="M127.839 99.7408C129.553 99.6192 130.844 98.1309 130.723 96.4166C130.601 94.7023 129.113 93.4112 127.398 93.5328C125.684 93.6544 124.393 95.1426 124.515 96.8569C124.636 98.5712 126.124 99.8624 127.839 99.7408Z" stroke="#FFFAFA" stroke-opacity="0.16" stroke-width="1.46438" stroke-linecap="round" stroke-linejoin="round"/>
<path d="M124.294 93.7529L123.854 87.545L120.75 87.7652C119.927 87.8236 119.16 88.2066 118.62 88.83C118.079 89.4534 117.808 90.2661 117.866 91.0894C117.925 91.9126 118.308 92.6789 118.931 93.2197C119.554 93.7606 120.367 94.0316 121.19 93.9732L124.294 93.7529Z" stroke="#FFFAFA" stroke-opacity="0.16" stroke-width="1.46438" stroke-linecap="round" stroke-linejoin="round"/>
<path d="M124.735 99.9605L124.294 93.7525L121.19 93.9727C120.367 94.0311 119.601 94.4141 119.06 95.0375C118.519 95.6609 118.248 96.4736 118.307 97.2969C118.365 98.1201 118.748 98.8864 119.371 99.4273C119.995 99.9681 120.808 100.239 121.631 100.181L124.735 99.9605Z" stroke="#FFFAFA" stroke-opacity="0.16" stroke-width="1.46438" stroke-linecap="round" stroke-linejoin="round"/>
<path d="M124.294 93.7529L123.854 87.5449L126.958 87.3248C127.781 87.2664 128.594 87.5374 129.217 88.0782C129.841 88.619 130.224 89.3854 130.282 90.2086C130.341 91.0318 130.07 91.8445 129.529 92.4679C128.988 93.0913 128.222 93.4744 127.398 93.5328L124.294 93.7529Z" stroke="#FFFAFA" stroke-opacity="0.16" stroke-width="1.46438" stroke-linecap="round" stroke-linejoin="round"/>
<path d="M124.735 99.9605L124.955 103.065C124.999 103.679 124.859 104.292 124.554 104.826C124.249 105.361 123.793 105.793 123.242 106.068C122.692 106.343 122.072 106.449 121.461 106.372C120.851 106.295 120.277 106.039 119.812 105.635C119.347 105.232 119.012 104.7 118.85 104.106C118.687 103.513 118.704 102.884 118.899 102.3C119.094 101.717 119.457 101.204 119.943 100.826C120.43 100.449 121.017 100.224 121.631 100.181L124.735 99.9605Z" stroke="#FFFAFA" stroke-opacity="0.16" stroke-width="1.46438" stroke-linecap="round" stroke-linejoin="round"/>
</g>
<g opacity="0.941389">
<path d="M236.98 204.929C237.554 206.549 239.333 207.397 240.953 206.822C242.573 206.248 243.42 204.469 242.846 202.849C242.272 201.23 240.493 200.382 238.873 200.956C237.253 201.531 236.406 203.309 236.98 204.929Z" stroke="#FFFAFA" stroke-opacity="0.16" stroke-width="1.46438" stroke-linecap="round" stroke-linejoin="round"/>
<path d="M241.806 199.917L247.672 197.837L246.632 194.904C246.356 194.126 245.783 193.49 245.038 193.135C244.293 192.78 243.437 192.735 242.659 193.011C241.882 193.287 241.245 193.86 240.89 194.605C240.535 195.35 240.491 196.206 240.766 196.984L241.806 199.917Z" stroke="#FFFAFA" stroke-opacity="0.16" stroke-width="1.46438" stroke-linecap="round" stroke-linejoin="round"/>
<path d="M235.941 201.996L241.806 199.917L240.766 196.984C240.491 196.206 239.917 195.569 239.172 195.214C238.427 194.859 237.572 194.815 236.794 195.091C236.016 195.366 235.379 195.94 235.024 196.685C234.669 197.43 234.625 198.286 234.901 199.063L235.941 201.996Z" stroke="#FFFAFA" stroke-opacity="0.16" stroke-width="1.46438" stroke-linecap="round" stroke-linejoin="round"/>
<path d="M241.806 199.917L247.672 197.837L248.712 200.77C248.988 201.548 248.943 202.403 248.588 203.148C248.233 203.893 247.597 204.467 246.819 204.743C246.041 205.018 245.185 204.974 244.44 204.619C243.695 204.264 243.122 203.627 242.846 202.85L241.806 199.917Z" stroke="#FFFAFA" stroke-opacity="0.16" stroke-width="1.46438" stroke-linecap="round" stroke-linejoin="round"/>
<path d="M235.941 201.996L233.008 203.036C232.428 203.242 231.799 203.271 231.203 203.12C230.606 202.968 230.068 202.643 229.656 202.186C229.244 201.729 228.977 201.16 228.888 200.551C228.8 199.942 228.894 199.32 229.159 198.765C229.423 198.209 229.847 197.744 230.376 197.429C230.904 197.115 231.515 196.964 232.129 196.996C232.744 197.028 233.335 197.241 233.829 197.609C234.322 197.977 234.695 198.483 234.901 199.063L235.941 201.996Z" stroke="#FFFAFA" stroke-opacity="0.16" stroke-width="1.46438" stroke-linecap="round" stroke-linejoin="round"/>
</g>
<g opacity="0.785534">
<path d="M278.182 94.9456C276.509 95.3376 275.47 97.0118 275.862 98.6851C276.254 100.358 277.928 101.397 279.602 101.005C281.275 100.613 282.314 98.9389 281.922 97.2656C281.53 95.5923 279.855 94.5536 278.182 94.9456Z" stroke="#FFFAFA" stroke-opacity="0.16" stroke-width="1.46438" stroke-linecap="round" stroke-linejoin="round"/>
<path d="M282.631 100.296L284.051 106.355L287.081 105.645C287.884 105.457 288.58 104.957 289.015 104.256C289.45 103.555 289.589 102.709 289.401 101.906C289.212 101.102 288.713 100.406 288.011 99.9713C287.31 99.5362 286.465 99.3975 285.661 99.5857L282.631 100.296Z" stroke="#FFFAFA" stroke-opacity="0.16" stroke-width="1.46438" stroke-linecap="round" stroke-linejoin="round"/>
<path d="M281.212 94.236L282.631 100.295L285.661 99.5857C286.465 99.3975 287.161 98.8978 287.596 98.1965C288.031 97.4952 288.169 96.6497 287.981 95.8462C287.793 95.0426 287.293 94.3468 286.592 93.9117C285.891 93.4766 285.045 93.3379 284.242 93.5262L281.212 94.236Z" stroke="#FFFAFA" stroke-opacity="0.16" stroke-width="1.46438" stroke-linecap="round" stroke-linejoin="round"/>
<path d="M282.631 100.295L284.051 106.355L281.021 107.065C280.217 107.253 279.372 107.114 278.671 106.679C277.969 106.244 277.47 105.548 277.281 104.745C277.093 103.941 277.232 103.096 277.667 102.394C278.102 101.693 278.798 101.193 279.602 101.005L282.631 100.295Z" stroke="#FFFAFA" stroke-opacity="0.16" stroke-width="1.46438" stroke-linecap="round" stroke-linejoin="round"/>
<path d="M281.212 94.2359L280.502 91.2061C280.362 90.6068 280.402 89.9794 280.618 89.4032C280.835 88.827 281.217 88.3278 281.717 87.9688C282.217 87.6097 282.812 87.407 283.427 87.3863C284.042 87.3655 284.649 87.5276 285.172 87.852C285.695 88.1765 286.11 88.6488 286.365 89.2091C286.62 89.7694 286.702 90.3927 286.603 91C286.503 91.6074 286.226 92.1715 285.805 92.6211C285.385 93.0708 284.841 93.3857 284.242 93.5261L281.212 94.2359Z" stroke="#FFFAFA" stroke-opacity="0.16" stroke-width="1.46438" stroke-linecap="round" stroke-linejoin="round"/>
</g>
<g opacity="0.117301">
<path d="M620.545 303.813C621.899 304.872 623.855 304.633 624.914 303.279C625.972 301.925 625.733 299.969 624.379 298.911C623.026 297.852 621.07 298.091 620.011 299.445C618.952 300.799 619.192 302.754 620.545 303.813Z" stroke="#FFFAFA" stroke-opacity="0.16" stroke-width="1.46438" stroke-linecap="round" stroke-linejoin="round"/>
<path d="M621.928 296.994L625.762 292.091L623.311 290.174C622.661 289.666 621.835 289.437 621.016 289.537C620.197 289.637 619.451 290.058 618.943 290.709C618.434 291.359 618.205 292.184 618.305 293.003C618.405 293.822 618.827 294.568 619.477 295.077L621.928 296.994Z" stroke="#FFFAFA" stroke-opacity="0.16" stroke-width="1.46438" stroke-linecap="round" stroke-linejoin="round"/>
<path d="M618.094 301.896L621.928 296.994L619.477 295.077C618.827 294.568 618.002 294.339 617.182 294.439C616.363 294.539 615.617 294.961 615.109 295.611C614.6 296.261 614.371 297.086 614.471 297.906C614.571 298.725 614.993 299.471 615.643 299.979L618.094 301.896Z" stroke="#FFFAFA" stroke-opacity="0.16" stroke-width="1.46438" stroke-linecap="round" stroke-linejoin="round"/>
<path d="M621.928 296.994L625.762 292.091L628.213 294.008C628.864 294.517 629.285 295.263 629.385 296.082C629.485 296.901 629.256 297.726 628.748 298.377C628.239 299.027 627.493 299.448 626.674 299.548C625.855 299.648 625.03 299.419 624.379 298.911L621.928 296.994Z" stroke="#FFFAFA" stroke-opacity="0.16" stroke-width="1.46438" stroke-linecap="round" stroke-linejoin="round"/>
<path d="M618.094 301.896L616.177 304.347C615.798 304.832 615.284 305.194 614.699 305.386C614.115 305.578 613.486 305.593 612.893 305.429C612.3 305.264 611.769 304.927 611.368 304.46C610.966 303.994 610.712 303.419 610.637 302.808C610.563 302.197 610.671 301.578 610.948 301.028C611.225 300.479 611.659 300.024 612.195 299.721C612.731 299.418 613.344 299.281 613.958 299.327C614.572 299.373 615.158 299.6 615.643 299.979L618.094 301.896Z" stroke="#FFFAFA" stroke-opacity="0.16" stroke-width="1.46438" stroke-linecap="round" stroke-linejoin="round"/>
</g>
<g opacity="0.348948">
<path d="M718.696 324.534C718.586 325.106 718.707 325.699 719.034 326.181C719.361 326.663 719.865 326.996 720.438 327.106L724.751 327.937" stroke="#FFFAFA" stroke-opacity="0.16" stroke-width="1.46438" stroke-linecap="round" stroke-linejoin="round"/>
<path d="M724.821 327.578L725.097 326.14C725.208 325.568 725.086 324.975 724.759 324.493C724.433 324.01 723.928 323.677 723.356 323.567L722.637 323.429C722.065 323.319 721.56 322.986 721.233 322.503C720.907 322.021 720.785 321.429 720.895 320.856" stroke="#FFFAFA" stroke-opacity="0.16" stroke-width="1.46438" stroke-linecap="round" stroke-linejoin="round"/>
<path d="M732.99 325.47C733.689 325.344 734.407 325.376 735.092 325.564C735.777 325.753 736.411 326.092 736.947 326.557C736.796 327.342 736.45 328.077 735.941 328.693C735.431 329.308 734.775 329.786 734.032 330.081L734.032 330.081L733.472 332.988L733.472 332.988C734.052 333.538 734.484 334.225 734.729 334.986C734.973 335.747 735.022 336.557 734.87 337.342C734.199 337.575 733.485 337.655 732.779 337.575C732.073 337.496 731.394 337.259 730.792 336.882V336.882C729.976 337.243 729.068 337.345 728.192 337.175L727.473 337.036C726.329 336.816 725.319 336.15 724.666 335.185C724.013 334.22 723.769 333.036 723.99 331.891L724.82 327.578C725.041 326.433 725.707 325.424 726.671 324.771C727.636 324.117 728.821 323.874 729.965 324.094L730.684 324.233C731.561 324.4 732.366 324.832 732.99 325.47L732.99 325.47Z" stroke="#FFFAFA" stroke-opacity="0.16" stroke-width="1.46438" stroke-linecap="round" stroke-linejoin="round"/>
</g>
<g opacity="0.257084">
<path d="M1104.69 78.4517C1104.12 78.5543 1103.61 78.8805 1103.28 79.3585C1102.94 79.8365 1102.82 80.4273 1102.92 81.0007L1103.69 85.3252" stroke="#FFFAFA" stroke-opacity="0.16" stroke-width="1.46438" stroke-linecap="round" stroke-linejoin="round"/>
<path d="M1096.77 79.8702C1097.34 79.7677 1097.93 79.8971 1098.41 80.2301C1098.89 80.563 1099.21 81.0722 1099.31 81.6457L1100.09 85.9702" stroke="#FFFAFA" stroke-opacity="0.16" stroke-width="1.46438" stroke-linecap="round" stroke-linejoin="round"/>
<path d="M1099.73 86.0347L1098.29 86.2925C1097.71 86.3951 1097.12 86.2657 1096.64 85.9327C1096.17 85.5997 1095.84 85.0905 1095.74 84.517L1095.61 83.7963C1095.51 83.2228 1095.18 82.7136 1094.7 82.3806C1094.22 82.0476 1093.63 81.9182 1093.06 82.0208" stroke="#FFFAFA" stroke-opacity="0.16" stroke-width="1.46438" stroke-linecap="round" stroke-linejoin="round"/>
<path d="M1104.05 85.2609L1105.49 85.003C1106.07 84.9004 1106.58 84.5743 1106.91 84.0962C1107.24 83.6182 1107.37 83.0275 1107.27 82.454L1107.14 81.7333C1107.04 81.1598 1107.17 80.5691 1107.5 80.091C1107.83 79.613 1108.34 79.2868 1108.92 79.1842" stroke="#FFFAFA" stroke-opacity="0.16" stroke-width="1.46438" stroke-linecap="round" stroke-linejoin="round"/>
<path d="M1108.95 92.1292C1109.32 92.7362 1109.55 93.4182 1109.62 94.1249C1109.69 94.8317 1109.6 95.5452 1109.36 96.2129C1108.57 96.3541 1107.76 96.2947 1107 96.0402C1106.25 95.7858 1105.56 95.3444 1105.02 94.757L1105.02 94.7569L1102.11 95.2782L1102.11 95.2783C1101.8 96.0172 1101.32 96.6674 1100.69 97.1687C1100.07 97.6701 1099.33 98.0064 1098.55 98.1467C1098.09 97.6042 1097.76 96.9658 1097.58 96.2786C1097.4 95.5913 1097.38 94.8726 1097.51 94.1754V94.1754C1096.88 93.5427 1096.46 92.7324 1096.31 91.8534L1096.18 91.1326C1095.97 89.9857 1096.23 88.8042 1096.9 87.8482C1097.56 86.8921 1098.58 86.2397 1099.73 86.0346L1104.05 85.2611C1105.2 85.0559 1106.38 85.3148 1107.34 85.9807C1108.29 86.6466 1108.94 87.6651 1109.15 88.812L1109.28 89.5328C1109.44 90.4113 1109.32 91.3174 1108.95 92.1292L1108.95 92.1292Z" stroke="#FFFAFA" stroke-opacity="0.16" stroke-width="1.46438" stroke-linecap="round" stroke-linejoin="round"/>
</g>
<g opacity="0.25452">
<path d="M968.57 162.813C968.38 162.263 967.979 161.81 967.456 161.555C966.932 161.299 966.328 161.263 965.778 161.452L961.624 162.884" stroke="#FFFAFA" stroke-opacity="0.16" stroke-width="1.46438" stroke-linecap="round" stroke-linejoin="round"/>
<path d="M965.946 155.199C966.136 155.749 966.099 156.353 965.844 156.877C965.588 157.4 965.136 157.801 964.585 157.991L960.431 159.422" stroke="#FFFAFA" stroke-opacity="0.16" stroke-width="1.46438" stroke-linecap="round" stroke-linejoin="round"/>
<path d="M960.312 159.076L959.835 157.692C959.645 157.141 959.682 156.537 959.937 156.014C960.193 155.49 960.645 155.089 961.196 154.899L961.888 154.661C962.439 154.471 962.892 154.07 963.147 153.546C963.403 153.023 963.439 152.419 963.249 151.868" stroke="#FFFAFA" stroke-opacity="0.16" stroke-width="1.46438" stroke-linecap="round" stroke-linejoin="round"/>
<path d="M961.743 163.23L962.221 164.614C962.41 165.165 962.811 165.618 963.335 165.873C963.859 166.128 964.462 166.165 965.013 165.975L965.705 165.737C966.256 165.547 966.86 165.584 967.383 165.839C967.907 166.094 968.308 166.547 968.498 167.098" stroke="#FFFAFA" stroke-opacity="0.16" stroke-width="1.46438" stroke-linecap="round" stroke-linejoin="round"/>
<path d="M955.714 169.131C955.171 169.589 954.532 169.919 953.845 170.097C953.157 170.276 952.438 170.298 951.741 170.162C951.48 169.406 951.414 168.597 951.549 167.809C951.683 167.021 952.014 166.28 952.511 165.654L952.511 165.654L951.547 162.855L951.546 162.855C950.769 162.668 950.052 162.288 949.461 161.75C948.869 161.212 948.423 160.534 948.163 159.778C948.628 159.242 949.208 158.816 949.859 158.533C950.511 158.25 951.217 158.117 951.927 158.143V158.143C952.455 157.423 953.191 156.882 954.035 156.593L954.728 156.354C955.829 155.975 957.036 156.048 958.084 156.559C959.131 157.069 959.933 157.975 960.312 159.076L961.744 163.23C962.123 164.331 962.05 165.539 961.539 166.586C961.029 167.633 960.123 168.435 959.021 168.815L958.329 169.053C957.486 169.345 956.573 169.372 955.714 169.131L955.714 169.131Z" stroke="#FFFAFA" stroke-opacity="0.16" stroke-width="1.46438" stroke-linecap="round" stroke-linejoin="round"/>
</g>
<g opacity="0.467274">
<path d="M1030.36 242.583C1030.82 242.934 1031.41 243.085 1031.98 243.004C1032.56 242.924 1033.08 242.617 1033.43 242.152L1036.08 238.644" stroke="#FFFAFA" stroke-opacity="0.16" stroke-width="1.46438" stroke-linecap="round" stroke-linejoin="round"/>
<path d="M1036.79 247.432C1036.32 247.081 1036.02 246.56 1035.93 245.983C1035.85 245.406 1036.01 244.821 1036.36 244.356L1039 240.848" stroke="#FFFAFA" stroke-opacity="0.16" stroke-width="1.46438" stroke-linecap="round" stroke-linejoin="round"/>
<path d="M1039.29 241.068L1040.46 241.949C1040.93 242.3 1041.23 242.821 1041.32 243.398C1041.4 243.975 1041.24 244.561 1040.89 245.026L1040.45 245.61C1040.1 246.076 1039.95 246.661 1040.03 247.238C1040.11 247.815 1040.42 248.336 1040.88 248.687" stroke="#FFFAFA" stroke-opacity="0.16" stroke-width="1.46438" stroke-linecap="round" stroke-linejoin="round"/>
<path d="M1035.78 238.423L1034.62 237.542C1034.15 237.191 1033.56 237.039 1032.99 237.12C1032.41 237.201 1031.89 237.508 1031.54 237.973L1031.1 238.558C1030.75 239.023 1030.23 239.33 1029.65 239.411C1029.07 239.492 1028.49 239.34 1028.02 238.99" stroke="#FFFAFA" stroke-opacity="0.16" stroke-width="1.46438" stroke-linecap="round" stroke-linejoin="round"/>
<path d="M1037.49 230.16C1037.68 229.477 1038.03 228.846 1038.5 228.314C1038.97 227.782 1039.55 227.362 1040.21 227.085C1040.85 227.566 1041.35 228.2 1041.68 228.928C1042.01 229.657 1042.15 230.457 1042.09 231.253L1042.09 231.254L1044.45 233.036L1044.45 233.036C1045.2 232.757 1046.01 232.671 1046.8 232.787C1047.59 232.902 1048.34 233.215 1048.98 233.697C1048.89 234.402 1048.65 235.078 1048.27 235.677C1047.88 236.276 1047.37 236.781 1046.77 237.156V237.156C1046.73 238.048 1046.42 238.908 1045.89 239.62L1045.45 240.204C1044.74 241.135 1043.7 241.748 1042.55 241.91C1041.39 242.072 1040.22 241.769 1039.29 241.068L1035.79 238.423C1034.85 237.721 1034.24 236.679 1034.08 235.525C1033.92 234.372 1034.22 233.201 1034.92 232.27L1035.36 231.686C1035.9 230.972 1036.64 230.439 1037.49 230.16L1037.49 230.16Z" stroke="#FFFAFA" stroke-opacity="0.16" stroke-width="1.46438" stroke-linecap="round" stroke-linejoin="round"/>
</g>
</g>
<defs>
<radialGradient id="paint0_radial" cx="0" cy="0" r="1" gradientUnits="userSpaceOnUse" gradientTransform="translate(570.155 -41.7876) rotate(89.8896) scale(592.739 2140.2)">
<stop stop-opacity="0.2"/>
<stop offset="1" stop-color="white" stop-opacity="0"/>
</radialGradient>
<clipPath id="clip0">
<rect width="1174.74" height="325.35" fill="white"/>
</clipPath>
</defs>
</svg>
